<svg version="1.1" id="Layer_1" xmlns="http://www.w3.org/2000/svg" xmlns:xlink="http://www.w3.org/1999/xlink" x="0px" y="0px"
	 width="100%" viewBox="0 0 3240 4860" enable-background="new 0 0 3240 4860" xml:space="preserve">
<path fill="#F3F3F3" opacity="1.000000" stroke="none" 
	d="
M3242.000000,2432.000000 
	C3242.000000,2698.722656 3242.000000,2965.445557 3241.062744,3233.076660 
	C2975.590088,3233.983398 2711.054443,3233.981201 2446.519043,3233.989990 
	C2443.525635,3233.990234 2440.430664,3233.711426 2437.583984,3234.397217 
	C2436.248047,3234.718994 2434.838379,3236.920654 2434.533691,3238.479736 
	C2434.363037,3239.352051 2436.231201,3241.348389 2437.449463,3241.616455 
	C2440.003662,3242.178467 2442.735840,3242.008789 2445.394775,3242.008789 
	C2710.929932,3242.013916 2976.464844,3242.006592 3242.000000,3242.000000 
	C3242.000000,3508.722656 3242.000000,3775.445557 3241.062744,4043.076660 
	C2975.590088,4043.983398 2711.054443,4043.981201 2446.519043,4043.989990 
	C2443.525635,4043.989990 2440.430664,4043.711426 2437.583740,4044.397217 
	C2436.247803,4044.718994 2434.838135,4046.920654 2434.533936,4048.479736 
	C2434.363281,4049.352539 2436.230957,4051.348145 2437.449463,4051.616455 
	C2440.003662,4052.178711 2442.735840,4052.009033 2445.394775,4052.009033 
	C2710.929932,4052.014160 2976.464844,4052.006592 3242.000000,4052.000000 
	C3242.000000,4321.907227 3242.000000,4591.814941 3242.000000,4862.000000 
	C2703.277344,4862.000000 2164.554443,4862.000000 1624.911255,4861.062500 
	C1623.989014,4325.187012 1623.987427,3790.249268 1623.981079,3255.311279 
	C1623.980957,3252.312500 1623.937622,3249.312988 1623.863281,3246.315186 
	C1623.847046,3245.661133 1623.649536,3245.000732 1623.457153,3244.366699 
	C1623.366699,3244.068848 1623.103149,3243.817139 1622.895386,3243.562500 
	C1622.687500,3243.308838 1622.451538,3243.077881 1621.656738,3242.221436 
	C1619.699829,3242.458008 1617.253540,3242.753662 1614.014648,3243.145264 
	C1614.014648,3266.069580 1614.014648,3288.345703 1614.014648,3310.622070 
	C1614.014648,3332.619385 1614.014648,3354.616943 1614.014648,3376.614258 
	C1614.014648,3398.945068 1614.014648,3421.275635 1614.014648,3443.606445 
	C1614.014648,3465.937256 1614.014648,3488.267822 1614.014648,3510.598633 
	C1614.014648,3532.595947 1614.014648,3554.593506 1614.014648,3576.590820 
	C1614.014648,3598.921631 1614.014648,3621.252197 1614.014648,3643.583008 
	C1614.014648,3665.913818 1614.014648,3688.244385 1614.014648,3710.575195 
	C1614.014648,3732.572754 1614.014648,3754.570068 1614.014648,3776.567627 
	C1614.014648,3798.898193 1614.014648,3821.229004 1614.014648,3843.559570 
	C1614.014648,3865.890381 1614.014648,3888.220947 1614.014648,3910.551758 
	C1614.014648,3932.549316 1614.147461,3954.547607 1613.977295,3976.543945 
	C1613.805908,3998.710449 1614.740601,4020.912109 1613.388428,4042.846191 
	C1599.310913,4045.030029 821.987671,4044.337646 813.987793,4042.010742 
	C813.987793,4038.055664 813.987793,4033.791992 813.987793,4029.528564 
	C813.987793,3715.231934 813.986755,3400.935547 813.987854,3086.638916 
	C813.991516,2058.426025 813.995911,1030.213013 814.000000,2.000000 
	C1623.194458,2.000000 2432.388916,2.000000 3242.000000,2.000000 
	C3242.000000,808.722717 3242.000000,1615.445435 3241.062744,2423.076660 
	C2975.590088,2423.983398 2711.054443,2423.981201 2446.519043,2423.990234 
	C2443.525635,2423.990479 2440.430664,2423.711670 2437.583984,2424.397217 
	C2436.248047,2424.718750 2434.838623,2426.920410 2434.533447,2428.479736 
	C2434.362793,2429.351807 2436.231201,2431.348145 2437.449463,2431.616211 
	C2440.003662,2432.178467 2442.735840,2432.009033 2445.394775,2432.009033 
	C2710.929932,2432.014160 2976.464844,2432.006592 3242.000000,2432.000000 
M2039.632690,3465.352783 
	C2036.130493,3458.474121 2032.628296,3451.595459 2028.301270,3443.097168 
	C1959.772949,3580.161621 1892.215942,3715.282959 1824.514893,3850.692627 
	C1837.347778,3852.839355 2224.377197,3852.280762 2231.962891,3850.087891 
	C2168.013916,3722.219482 2104.123047,3594.467041 2039.632690,3465.352783 
M2162.341553,2820.577148 
	C2161.840820,2817.290527 2161.487061,2813.973877 2160.817383,2810.721924 
	C2145.259277,2735.126709 2073.880615,2694.095215 2009.034546,2703.756104 
	C1941.408813,2713.831543 1883.564819,2776.157715 1894.920532,2856.518799 
	C1905.963745,2934.667725 1978.686768,2984.994141 2055.971191,2969.789795 
	C2123.487061,2956.507080 2171.396973,2890.266602 2162.341553,2820.577148 
M2887.177734,2773.583740 
	C2871.269531,2741.814209 2855.361572,2710.044434 2839.268066,2677.904541 
	C2832.441895,2686.360352 2680.747803,2990.456543 2679.493408,2997.710205 
	C2699.346924,2999.575684 2990.230469,2998.728516 2998.594727,2996.514648 
	C2961.617188,2922.522217 2924.733398,2848.717773 2887.177734,2773.583740 
M1308.290771,1244.378906 
	C1278.644165,1185.080322 1248.997437,1125.781738 1218.990112,1065.761719 
	C1209.466797,1080.031616 1069.040283,1362.539673 1067.748047,1369.636963 
	C1168.263062,1369.636963 1268.755249,1369.636963 1370.912842,1369.636963 
	C1349.932129,1327.664795 1329.449097,1286.688110 1308.290771,1244.378906 
M1614.014648,1471.000000 
	C1614.014648,1520.882202 1614.014648,1570.764282 1614.014648,1619.872437 
	C1615.891846,1620.961304 1616.451172,1621.570068 1617.010864,1621.570435 
	C1884.946411,1621.749023 2152.882080,1621.889038 2420.817627,1621.997437 
	C2424.458008,1621.999023 2428.099365,1621.604980 2431.737305,1621.354248 
	C2432.008545,1621.335693 2432.266602,1620.995972 2432.512451,1620.784180 
	C2432.764404,1620.566895 2432.994141,1620.323730 2433.214600,1620.109985 
	C2435.321533,1603.160400 2434.383545,819.731201 2432.048584,812.188293 
	C2429.724609,812.460205 2427.276123,812.746643 2424.009766,813.128845 
	C2424.009766,836.045471 2424.010010,858.318298 2424.010010,880.591064 
	C2424.010010,902.586914 2424.010010,924.582703 2424.010010,946.578552 
	C2424.010010,968.907654 2424.010010,991.236816 2424.010010,1013.565918 
	C2424.010010,1035.895020 2424.010010,1058.224121 2424.010010,1080.553223 
	C2424.010010,1102.549072 2424.010010,1124.544922 2424.010010,1146.540771 
	C2424.010010,1168.869873 2424.010010,1191.198975 2424.010010,1213.528076 
	C2424.010010,1235.857178 2424.010010,1258.186279 2424.010010,1280.515381 
	C2424.010010,1302.511230 2424.010010,1324.507080 2424.010010,1346.502930 
	C2424.010010,1368.832031 2424.010010,1391.161133 2424.010010,1413.490234 
	C2424.010010,1435.819336 2424.010010,1458.148560 2424.010010,1480.477661 
	C2424.010010,1502.473511 2424.129395,1524.470215 2423.976074,1546.464966 
	C2423.821777,1568.638184 2424.664795,1590.841675 2423.442627,1612.777588 
	C2410.734131,1614.869019 1632.265625,1614.329834 1623.852539,1612.069214 
	C1623.852539,1346.000488 1623.852539,1079.587402 1623.852539,812.056702 
	C1619.806396,812.496216 1617.135254,812.786377 1614.014648,813.125366 
	C1614.014648,1032.457153 1614.014648,1250.728516 1614.014648,1471.000000 
M2880.598145,4499.590332 
	C2882.556641,4497.323730 2884.679199,4495.177734 2886.448486,4492.771973 
	C2903.315674,4469.838379 2901.610107,4438.314453 2882.428223,4417.257812 
	C2863.382568,4396.351074 2832.123779,4391.916504 2807.545410,4406.634277 
	C2783.753662,4420.880859 2772.858887,4450.859375 2782.271240,4477.089844 
	C2797.323242,4519.037598 2848.979248,4529.827637 2880.598145,4499.590332 
M1993.695923,362.631195 
	C1971.056519,378.834167 1971.731201,402.612610 1975.329712,425.779510 
	C1978.433105,445.758392 2001.032593,461.685669 2021.322388,461.700378 
	C2026.309814,461.704010 2031.297241,461.707977 2036.284668,461.699585 
	C2060.680176,461.658417 2082.422607,439.751923 2082.468750,415.165894 
	C2082.478760,409.846008 2082.479980,404.526031 2082.468506,399.206146 
	C2082.415771,375.072388 2060.886230,353.576691 2036.723267,353.531464 
	C2031.735840,353.522125 2026.709961,353.926453 2021.769043,353.446991 
	C2011.541870,352.454498 2002.844116,355.824280 1993.695923,362.631195 
z"/>
<path fill="#F3F3F3" opacity="1.000000" stroke="none" 
	d="
M2.000000,3234.000000 
	C2.000000,2427.267822 2.000000,1620.535767 2.937286,812.910217 
	C266.148773,812.018860 528.422974,812.020752 790.697205,812.025146 
	C793.362915,812.025208 796.030090,812.014526 798.693542,812.102234 
	C799.675964,812.134521 800.656067,812.408264 801.623108,812.632996 
	C801.918640,812.701660 802.184875,812.952026 802.431946,813.158264 
	C802.686401,813.370728 802.900940,813.630859 803.269043,814.010498 
	C803.269043,1620.157349 803.269043,2426.458984 803.269043,3234.000000 
	C535.685181,3234.000000 268.842590,3234.000000 2.000000,3234.000000 
M517.066528,2129.783691 
	C481.178650,2058.028564 445.290802,1986.273560 409.037994,1913.788818 
	C399.412140,1928.302124 297.125824,2134.531250 295.837524,2141.654785 
	C370.992004,2141.654785 446.118225,2141.654785 522.534241,2141.654785 
	C520.698792,2137.596436 519.238464,2134.367432 517.066528,2129.783691 
M495.945557,2852.937988 
	C495.945770,2842.674072 497.217285,2832.221436 495.726166,2822.178955 
	C489.265930,2778.670654 447.404968,2745.611084 403.733917,2748.710693 
	C354.585419,2752.199219 318.933777,2791.267090 319.881622,2840.597900 
	C320.902832,2893.745361 371.747192,2935.290039 423.818024,2924.849854 
	C462.660583,2917.062012 486.383789,2893.018799 495.945557,2852.937988 
z"/>
<path fill="#F3F3F3" opacity="1.000000" stroke="none" 
	d="
M1614.000000,4862.000000 
	C1076.854248,4862.000000 539.708435,4862.000000 2.000000,4862.000000 
	C2.000000,4592.615234 2.000000,4323.229980 2.937291,4052.929932 
	C536.012085,4052.016357 1068.149658,4052.017822 1600.287109,4052.023682 
	C1603.285156,4052.023682 1606.283569,4052.067383 1609.280762,4052.137939 
	C1609.933960,4052.153320 1610.586914,4052.352539 1611.231079,4052.504639 
	C1611.546021,4052.579102 1611.870972,4052.695557 1612.135864,4052.874756 
	C1612.405884,4053.057373 1612.608032,4053.340820 1614.000000,4054.776855 
	C1614.000000,4323.042480 1614.000000,4592.521484 1614.000000,4862.000000 
M1137.138428,4556.329590 
	C1197.021729,4556.329590 1256.905151,4556.329590 1317.064819,4556.329590 
	C1313.888428,4544.656738 1223.092773,4364.235352 1217.324097,4358.367188 
	C1184.521484,4423.999512 1151.871216,4489.326660 1118.383545,4556.329590 
	C1125.379150,4556.329590 1130.288086,4556.329590 1137.138428,4556.329590 
z"/>
<path fill="#F3F3F3" opacity="1.000000" stroke="none" 
	d="
M2.000000,4044.000000 
	C2.000000,3777.286621 2.000000,3510.573242 2.937291,3242.937500 
	C265.775879,3242.016357 527.677124,3242.017822 789.578430,3242.021484 
	C792.577087,3242.021484 795.576721,3242.012451 798.573730,3242.091553 
	C799.556580,3242.117432 800.537781,3242.384766 801.508057,3242.595947 
	C801.808899,3242.661377 802.092834,3242.877197 802.344238,3243.075195 
	C802.603638,3243.279785 802.814392,3243.545898 803.067017,3243.806396 
	C804.958496,3256.062988 804.351624,4035.753174 802.128174,4044.000000 
	C535.627380,4044.000000 268.813690,4044.000000 2.000000,4044.000000 
M486.984528,3755.700928 
	C496.412994,3755.700928 505.841431,3755.700928 516.868835,3755.700928 
	C480.444580,3682.843506 444.937286,3611.820312 409.410431,3540.758057 
	C408.356812,3541.351318 407.574097,3541.530518 407.265625,3542.012939 
	C406.196838,3543.683594 405.221405,3545.424316 404.336700,3547.201172 
	C370.094666,3615.974121 335.866150,3684.754150 301.658539,3753.544189 
	C301.540222,3753.781982 301.704254,3754.201416 301.821045,3754.503174 
	C301.924194,3754.769531 302.145599,3754.990234 302.644684,3755.700684 
	C363.205444,3755.700684 424.097351,3755.700684 486.984528,3755.700928 
z"/>
<path fill="#F3F3F3" opacity="1.000000" stroke="none" 
	d="
M2.000000,804.000000 
	C2.000000,536.810059 2.000000,269.620117 2.000000,2.000000 
	C268.713165,2.000000 535.426575,2.000000 803.074585,2.937306 
	C803.833191,269.707001 803.657227,535.539368 803.463196,801.371765 
	C803.463013,801.662292 803.224670,801.975708 803.038574,802.236389 
	C802.847290,802.504578 802.583801,802.721252 801.343933,804.000000 
	C535.559204,804.000000 268.779602,804.000000 2.000000,804.000000 
M220.628815,470.293488 
	C221.082443,471.545197 221.538849,472.795898 221.989288,474.048767 
	C255.885773,568.329285 354.612396,622.734314 451.628845,600.595276 
	C557.557434,576.422607 624.511047,473.962738 601.955627,367.600067 
	C585.987793,292.302002 539.858276,241.198242 466.469788,218.661789 
	C393.117096,196.136353 325.686066,211.987671 270.797546,265.807556 
	C213.293228,322.192322 197.510574,391.251892 220.628815,470.293488 
z"/>
<path fill="#DFDFDF" opacity="1.000000" stroke="none" 
	d="
M2.000000,804.799988 
	C268.779602,804.000000 535.559204,804.000000 801.343933,804.000000 
	C802.583801,802.721252 802.847290,802.504578 803.038574,802.236389 
	C803.224670,801.975708 803.463013,801.662292 803.463196,801.371765 
	C803.657227,535.539368 803.833191,269.707001 804.004639,2.937306 
	C806.777771,2.000000 809.555603,2.000000 813.166687,2.000000 
	C813.995911,1030.213013 813.991516,2058.426025 813.987854,3086.638916 
	C813.986755,3400.935547 813.987793,3715.231934 813.987793,4029.528564 
	C813.987793,4033.791992 813.987793,4038.055664 813.987793,4042.010742 
	C821.987671,4044.337646 1599.310913,4045.030029 1613.388428,4042.846191 
	C1614.740601,4020.912109 1613.805908,3998.710449 1613.977295,3976.543945 
	C1614.147461,3954.547607 1614.014648,3932.549316 1614.014648,3910.551758 
	C1614.014648,3888.220947 1614.014648,3865.890381 1614.014648,3843.559570 
	C1614.014648,3821.229004 1614.014648,3798.898193 1614.014648,3776.567627 
	C1614.014648,3754.570068 1614.014648,3732.572754 1614.014648,3710.575195 
	C1614.014648,3688.244385 1614.014648,3665.913818 1614.014648,3643.583008 
	C1614.014648,3621.252197 1614.014648,3598.921631 1614.014648,3576.590820 
	C1614.014648,3554.593506 1614.014648,3532.595947 1614.014648,3510.598633 
	C1614.014648,3488.267822 1614.014648,3465.937256 1614.014648,3443.606445 
	C1614.014648,3421.275635 1614.014648,3398.945068 1614.014648,3376.614258 
	C1614.014648,3354.616943 1614.014648,3332.619385 1614.014648,3310.622070 
	C1614.014648,3288.345703 1614.014648,3266.069580 1614.014648,3243.145264 
	C1617.253540,3242.753662 1619.699829,3242.458008 1621.656738,3242.221436 
	C1622.451538,3243.077881 1622.687500,3243.308838 1622.895386,3243.562500 
	C1623.103149,3243.817139 1623.366699,3244.068848 1623.457153,3244.366699 
	C1623.649536,3245.000732 1623.847046,3245.661133 1623.863281,3246.315186 
	C1623.937622,3249.312988 1623.980957,3252.312500 1623.981079,3255.311279 
	C1623.987427,3790.249268 1623.989014,4325.187012 1623.995361,4861.062500 
	C1621.222168,4862.000000 1618.444458,4862.000000 1614.833252,4862.000000 
	C1614.000000,4592.521484 1614.000000,4323.042480 1614.000000,4054.776855 
	C1612.608032,4053.340820 1612.405884,4053.057373 1612.135864,4052.874756 
	C1611.870972,4052.695557 1611.546021,4052.579102 1611.231079,4052.504639 
	C1610.586914,4052.352539 1609.933960,4052.153320 1609.280762,4052.137939 
	C1606.283569,4052.067383 1603.285156,4052.023682 1600.287109,4052.023682 
	C1068.149658,4052.017822 536.012085,4052.016357 2.937291,4052.007324 
	C2.000000,4049.866699 2.000000,4047.733154 2.000000,4044.799805 
	C268.813690,4044.000000 535.627380,4044.000000 802.128174,4044.000000 
	C804.351624,4035.753174 804.958496,3256.062988 803.067017,3243.806396 
	C802.814392,3243.545898 802.603638,3243.279785 802.344238,3243.075195 
	C802.092834,3242.877197 801.808899,3242.661377 801.508057,3242.595947 
	C800.537781,3242.384766 799.556580,3242.117432 798.573730,3242.091553 
	C795.576721,3242.012451 792.577087,3242.021484 789.578430,3242.021484 
	C527.677124,3242.017822 265.775879,3242.016357 2.937291,3242.007324 
	C2.000000,3239.866699 2.000000,3237.733154 2.000000,3234.799805 
	C268.842590,3234.000000 535.685181,3234.000000 803.269043,3234.000000 
	C803.269043,2426.458984 803.269043,1620.157349 803.269043,814.010498 
	C802.900940,813.630859 802.686401,813.370728 802.431946,813.158264 
	C802.184875,812.952026 801.918640,812.701660 801.623108,812.632996 
	C800.656067,812.408264 799.675964,812.134521 798.693542,812.102234 
	C796.030090,812.014526 793.362915,812.025208 790.697205,812.025146 
	C528.422974,812.020752 266.148773,812.018860 2.937286,812.008423 
	C2.000000,809.866638 2.000000,807.733337 2.000000,804.799988 
z"/>
<path fill="#DFDFDF" opacity="1.000000" stroke="none" 
	d="
M3242.000000,2431.200195 
	C2976.464844,2432.006592 2710.929932,2432.014160 2445.394775,2432.009033 
	C2442.735840,2432.009033 2440.003662,2432.178467 2437.449463,2431.616211 
	C2436.231201,2431.348145 2434.362793,2429.351807 2434.533447,2428.479736 
	C2434.838623,2426.920410 2436.248047,2424.718750 2437.583984,2424.397217 
	C2440.430664,2423.711670 2443.525635,2423.990479 2446.519043,2423.990234 
	C2711.054443,2423.981201 2975.590088,2423.983398 3241.062744,2423.992676 
	C3242.000000,2426.133301 3242.000000,2428.266846 3242.000000,2431.200195 
z"/>
<path fill="#DFDFDF" opacity="1.000000" stroke="none" 
	d="
M3242.000000,3241.200195 
	C2976.464844,3242.006592 2710.929932,3242.013916 2445.394775,3242.008789 
	C2442.735840,3242.008789 2440.003662,3242.178467 2437.449463,3241.616455 
	C2436.231201,3241.348389 2434.363037,3239.352051 2434.533691,3238.479736 
	C2434.838379,3236.920654 2436.248047,3234.718994 2437.583984,3234.397217 
	C2440.430664,3233.711426 2443.525635,3233.990234 2446.519043,3233.989990 
	C2711.054443,3233.981201 2975.590088,3233.983398 3241.062744,3233.992676 
	C3242.000000,3236.133301 3242.000000,3238.266846 3242.000000,3241.200195 
z"/>
<path fill="#DFDFDF" opacity="1.000000" stroke="none" 
	d="
M3242.000000,4051.200195 
	C2976.464844,4052.006592 2710.929932,4052.014160 2445.394775,4052.009033 
	C2442.735840,4052.009033 2440.003662,4052.178711 2437.449463,4051.616455 
	C2436.230957,4051.348145 2434.363281,4049.352539 2434.533936,4048.479736 
	C2434.838135,4046.920654 2436.247803,4044.718994 2437.583740,4044.397217 
	C2440.430664,4043.711426 2443.525635,4043.989990 2446.519043,4043.989990 
	C2711.054443,4043.981201 2975.590088,4043.983398 3241.062744,4043.992676 
	C3242.000000,4046.133301 3242.000000,4048.266846 3242.000000,4051.200195 
z"/>
<path fill="#EA4436" opacity="1.000000" stroke="none" 
	d="
M2039.932373,3466.033691 
	C2104.123047,3594.467041 2168.013916,3722.219482 2231.962891,3850.087891 
	C2224.377197,3852.280762 1837.347778,3852.839355 1824.514893,3850.692627 
	C1892.215942,3715.282959 1959.772949,3580.161621 2028.301270,3443.097168 
	C2032.628296,3451.595459 2036.130493,3458.474121 2039.932373,3466.033691 
z"/>
<path fill="#6441FF" opacity="1.000000" stroke="none" 
	d="
M2162.479004,2821.458984 
	C2171.396973,2890.266602 2123.487061,2956.507080 2055.971191,2969.789795 
	C1978.686768,2984.994141 1905.963745,2934.667725 1894.920532,2856.518799 
	C1883.564819,2776.157715 1941.408813,2713.831543 2009.034546,2703.756104 
	C2073.880615,2694.095215 2145.259277,2735.126709 2160.817383,2810.721924 
	C2161.487061,2813.973877 2161.840820,2817.290527 2162.479004,2821.458984 
z"/>
<path fill="#6441FF" opacity="1.000000" stroke="none" 
	d="
M2887.513672,2774.248535 
	C2924.733398,2848.717773 2961.617188,2922.522217 2998.594727,2996.514648 
	C2990.230469,2998.728516 2699.346924,2999.575684 2679.493408,2997.710205 
	C2680.747803,2990.456543 2832.441895,2686.360352 2839.268066,2677.904541 
	C2855.361572,2710.044434 2871.269531,2741.814209 2887.513672,2774.248535 
z"/>
<path fill="#EA4436" opacity="1.000000" stroke="none" 
	d="
M1308.628418,1245.045166 
	C1329.449097,1286.688110 1349.932129,1327.664795 1370.912842,1369.636963 
	C1268.755249,1369.636963 1168.263062,1369.636963 1067.748047,1369.636963 
	C1069.040283,1362.539673 1209.466797,1080.031616 1218.990112,1065.761719 
	C1248.997437,1125.781738 1278.644165,1185.080322 1308.628418,1245.045166 
z"/>
<path fill="#DFDFDF" opacity="1.000000" stroke="none" 
	d="
M1614.014648,1470.000000 
	C1614.014648,1250.728516 1614.014648,1032.457153 1614.014648,813.125366 
	C1617.135254,812.786377 1619.806396,812.496216 1623.852539,812.056702 
	C1623.852539,1079.587402 1623.852539,1346.000488 1623.852539,1612.069214 
	C1632.265625,1614.329834 2410.734131,1614.869019 2423.442627,1612.777588 
	C2424.664795,1590.841675 2423.821777,1568.638184 2423.976074,1546.464966 
	C2424.129395,1524.470215 2424.010010,1502.473511 2424.010010,1480.477661 
	C2424.010010,1458.148560 2424.010010,1435.819336 2424.010010,1413.490234 
	C2424.010010,1391.161133 2424.010010,1368.832031 2424.010010,1346.502930 
	C2424.010010,1324.507080 2424.010010,1302.511230 2424.010010,1280.515381 
	C2424.010010,1258.186279 2424.010010,1235.857178 2424.010010,1213.528076 
	C2424.010010,1191.198975 2424.010010,1168.869873 2424.010010,1146.540771 
	C2424.010010,1124.544922 2424.010010,1102.549072 2424.010010,1080.553223 
	C2424.010010,1058.224121 2424.010010,1035.895020 2424.010010,1013.565918 
	C2424.010010,991.236816 2424.010010,968.907654 2424.010010,946.578552 
	C2424.010010,924.582703 2424.010010,902.586914 2424.010010,880.591064 
	C2424.010010,858.318298 2424.009766,836.045471 2424.009766,813.128845 
	C2427.276123,812.746643 2429.724609,812.460205 2432.048584,812.188293 
	C2434.383545,819.731201 2435.321533,1603.160400 2433.214600,1620.109985 
	C2432.994141,1620.323730 2432.764404,1620.566895 2432.512451,1620.784180 
	C2432.266602,1620.995972 2432.008545,1621.335693 2431.737305,1621.354248 
	C2428.099365,1621.604980 2424.458008,1621.999023 2420.817627,1621.997437 
	C2152.882080,1621.889038 1884.946411,1621.749023 1617.010864,1621.570435 
	C1616.451172,1621.570068 1615.891846,1620.961304 1614.014648,1619.872437 
	C1614.014648,1570.764282 1614.014648,1520.882202 1614.014648,1470.000000 
z"/>
<path fill="#36A955" opacity="1.000000" stroke="none" 
	d="
M2880.092285,4500.092773 
	C2848.979248,4529.827637 2797.323242,4519.037598 2782.271240,4477.089844 
	C2772.858887,4450.859375 2783.753662,4420.880859 2807.545410,4406.634277 
	C2832.123779,4391.916504 2863.382568,4396.351074 2882.428223,4417.257812 
	C2901.610107,4438.314453 2903.315674,4469.838379 2886.448486,4492.771973 
	C2884.679199,4495.177734 2882.556641,4497.323730 2880.092285,4500.092773 
z"/>
<path fill="#36A955" opacity="1.000000" stroke="none" 
	d="
M1994.282471,362.214050 
	C2002.844116,355.824280 2011.541870,352.454498 2021.769043,353.446991 
	C2026.709961,353.926453 2031.735840,353.522125 2036.723267,353.531464 
	C2060.886230,353.576691 2082.415771,375.072388 2082.468506,399.206146 
	C2082.479980,404.526031 2082.478760,409.846008 2082.468750,415.165894 
	C2082.422607,439.751923 2060.680176,461.658417 2036.284668,461.699585 
	C2031.297241,461.707977 2026.309814,461.704010 2021.322388,461.700378 
	C2001.032593,461.685669 1978.433105,445.758392 1975.329712,425.779510 
	C1971.731201,402.612610 1971.056519,378.834167 1994.282471,362.214050 
z"/>
<path fill="#FBBC07" opacity="1.000000" stroke="none" 
	d="
M517.422363,2130.461182 
	C519.238464,2134.367432 520.698792,2137.596436 522.534241,2141.654785 
	C446.118225,2141.654785 370.992004,2141.654785 295.837524,2141.654785 
	C297.125824,2134.531250 399.412140,1928.302124 409.037994,1913.788818 
	C445.290802,1986.273560 481.178650,2058.028564 517.422363,2130.461182 
z"/>
<path fill="#36A955" opacity="1.000000" stroke="none" 
	d="
M495.820190,2853.776855 
	C486.383789,2893.018799 462.660583,2917.062012 423.818024,2924.849854 
	C371.747192,2935.290039 320.902832,2893.745361 319.881622,2840.597900 
	C318.933777,2791.267090 354.585419,2752.199219 403.733917,2748.710693 
	C447.404968,2745.611084 489.265930,2778.670654 495.726166,2822.178955 
	C497.217285,2832.221436 495.945770,2842.674072 495.820190,2853.776855 
z"/>
<path fill="#36A955" opacity="1.000000" stroke="none" 
	d="
M1136.167725,4556.329590 
	C1130.288086,4556.329590 1125.379150,4556.329590 1118.383545,4556.329590 
	C1151.871216,4489.326660 1184.521484,4423.999512 1217.324097,4358.367188 
	C1223.092773,4364.235352 1313.888428,4544.656738 1317.064819,4556.329590 
	C1256.905151,4556.329590 1197.021729,4556.329590 1136.167725,4556.329590 
z"/>
<path fill="#36A955" opacity="1.000000" stroke="none" 
	d="
M485.986877,3755.700684 
	C424.097351,3755.700684 363.205444,3755.700684 302.644684,3755.700684 
	C302.145599,3754.990234 301.924194,3754.769531 301.821045,3754.503174 
	C301.704254,3754.201416 301.540222,3753.781982 301.658539,3753.544189 
	C335.866150,3684.754150 370.094666,3615.974121 404.336700,3547.201172 
	C405.221405,3545.424316 406.196838,3543.683594 407.265625,3542.012939 
	C407.574097,3541.530518 408.356812,3541.351318 409.410431,3540.758057 
	C444.937286,3611.820312 480.444580,3682.843506 516.868835,3755.700928 
	C505.841431,3755.700928 496.412994,3755.700928 485.986877,3755.700684 
z"/>
<path fill="#6441FF" opacity="1.000000" stroke="none" 
	d="
M220.391571,469.534241 
	C197.510574,391.251892 213.293228,322.192322 270.797546,265.807556 
	C325.686066,211.987671 393.117096,196.136353 466.469788,218.661789 
	C539.858276,241.198242 585.987793,292.302002 601.955627,367.600067 
	C624.511047,473.962738 557.557434,576.422607 451.628845,600.595276 
	C354.612396,622.734314 255.885773,568.329285 221.989288,474.048767 
	C221.538849,472.795898 221.082443,471.545197 220.391571,469.534241 
z"/>
</svg>