<svg version="1.1" id="Layer_1" xmlns="http://www.w3.org/2000/svg" xmlns:xlink="http://www.w3.org/1999/xlink" x="0px" y="0px"
	 width="100%" viewBox="0 0 512 512" enable-background="new 0 0 512 512" xml:space="preserve">
<path fill="transparent" opacity="1.000000" stroke="none" 
	d="
M237.000000,513.000000 
	C158.019150,513.000000 79.538300,513.000000 1.028727,513.000000 
	C1.028727,342.394135 1.028727,171.788239 1.028727,1.091181 
	C171.564209,1.091181 342.128479,1.091181 512.846375,1.091181 
	C512.846375,171.666565 512.846375,342.333252 512.846375,513.000000 
	C421.121552,513.000000 329.310760,513.000000 237.000000,513.000000 
M189.995392,178.507782 
	C189.069687,178.782578 188.097916,178.954880 187.225021,179.347168 
	C166.790756,188.530960 151.272522,203.022919 141.046173,222.935577 
	C128.417969,247.525116 126.746307,273.901062 130.261810,300.635071 
	C131.572067,310.598907 135.998505,319.885162 143.114258,327.759399 
	C159.415451,345.798126 191.976898,347.208435 211.525513,334.105194 
	C229.340500,322.164032 234.951889,296.461151 225.934586,278.646301 
	C219.000092,264.946350 207.207962,257.256622 192.864197,252.302856 
	C193.414505,237.809280 200.054214,226.757858 212.830414,220.201859 
	C220.583862,216.223251 229.362793,214.298431 237.463669,210.928436 
	C249.081680,206.095306 253.695602,192.626587 246.907486,181.363922 
	C242.126495,173.431427 234.383423,171.378632 226.172546,171.119095 
	C213.892654,170.730957 202.072144,173.588806 189.995392,178.507782 
M292.734924,337.974487 
	C303.343781,341.905823 314.009155,344.115997 325.542206,342.157379 
	C335.910004,340.396637 345.406281,336.909912 352.697876,329.566376 
	C364.207703,317.974579 368.322906,303.631348 364.744904,287.567932 
	C362.809235,278.877594 358.558746,270.876648 351.566650,265.480469 
	C345.041412,260.444611 337.208923,257.111328 330.011414,252.926102 
	C329.180695,252.443054 328.099823,251.218369 328.199524,250.481613 
	C329.897614,237.933823 335.487061,227.376938 346.711029,221.260925 
	C354.192719,217.184097 362.818329,215.263382 370.741608,211.925797 
	C380.850403,207.667603 386.038086,203.307068 385.039154,188.990326 
	C384.531647,181.716919 378.233307,174.535278 369.605835,172.262344 
	C361.013031,169.998550 352.517853,171.344070 343.950134,172.939682 
	C320.541107,177.299271 301.173065,188.886368 286.574646,207.242081 
	C270.884888,226.969940 264.585754,250.519211 264.133453,275.494232 
	C263.970947,284.468384 264.366699,293.676544 266.221924,302.413879 
	C269.476227,317.740143 277.554352,330.187958 292.734924,337.974487 
z"/>
<path fill="#FFFFFF" opacity="1.000000" stroke="none" 
	d="
M190.319550,178.270752 
	C202.072144,173.588806 213.892654,170.730957 226.172546,171.119095 
	C234.383423,171.378632 242.126495,173.431427 246.907486,181.363922 
	C253.695602,192.626587 249.081680,206.095306 237.463669,210.928436 
	C229.362793,214.298431 220.583862,216.223251 212.830414,220.201859 
	C200.054214,226.757858 193.414505,237.809280 192.864197,252.302856 
	C207.207962,257.256622 219.000092,264.946350 225.934586,278.646301 
	C234.951889,296.461151 229.340500,322.164032 211.525513,334.105194 
	C191.976898,347.208435 159.415451,345.798126 143.114258,327.759399 
	C135.998505,319.885162 131.572067,310.598907 130.261810,300.635071 
	C126.746307,273.901062 128.417969,247.525116 141.046173,222.935577 
	C151.272522,203.022919 166.790756,188.530960 187.225021,179.347168 
	C188.097916,178.954880 189.069687,178.782578 190.319550,178.270752 
z"/>
<path fill="#FFFFFF" opacity="1.000000" stroke="none" 
	d="
M292.396667,337.774933 
	C277.554352,330.187958 269.476227,317.740143 266.221924,302.413879 
	C264.366699,293.676544 263.970947,284.468384 264.133453,275.494232 
	C264.585754,250.519211 270.884888,226.969940 286.574646,207.242081 
	C301.173065,188.886368 320.541107,177.299271 343.950134,172.939682 
	C352.517853,171.344070 361.013031,169.998550 369.605835,172.262344 
	C378.233307,174.535278 384.531647,181.716919 385.039154,188.990326 
	C386.038086,203.307068 380.850403,207.667603 370.741608,211.925797 
	C362.818329,215.263382 354.192719,217.184097 346.711029,221.260925 
	C335.487061,227.376938 329.897614,237.933823 328.199524,250.481613 
	C328.099823,251.218369 329.180695,252.443054 330.011414,252.926102 
	C337.208923,257.111328 345.041412,260.444611 351.566650,265.480469 
	C358.558746,270.876648 362.809235,278.877594 364.744904,287.567932 
	C368.322906,303.631348 364.207703,317.974579 352.697876,329.566376 
	C345.406281,336.909912 335.910004,340.396637 325.542206,342.157379 
	C314.009155,344.115997 303.343781,341.905823 292.396667,337.774933 
z"/>
</svg>