<svg width="1693" height="791" viewBox="0 0 1693 791" fill="none" xmlns="http://www.w3.org/2000/svg">
<path d="M339.191 787.1V497.13H266.621V787.1H339.191Z" fill="#6440FF"/>
<path d="M320.461 656.85V521.83H281.501V656.85H320.461Z" fill="white"/>
<path d="M320.451 675.14V662.5H281.491V675.14H320.451Z" fill="#FE7624"/>
<path d="M300.231 750.97C307.786 750.97 313.911 744.845 313.911 737.29C313.911 729.735 307.786 723.61 300.231 723.61C292.676 723.61 286.551 729.735 286.551 737.29C286.551 744.845 292.676 750.97 300.231 750.97Z" stroke="white" stroke-width="6" stroke-linecap="round" stroke-linejoin="round"/>
<path d="M316.001 553.94H287.051" stroke="#FE7624" stroke-width="6" stroke-linecap="round" stroke-linejoin="round"/>
<path d="M316.001 568.81H287.051" stroke="#FE7624" stroke-width="6" stroke-linecap="round" stroke-linejoin="round"/>
<path d="M316.001 583.68H287.051" stroke="#FE7624" stroke-width="6" stroke-linecap="round" stroke-linejoin="round"/>
<path d="M411.461 787.4V497.43H338.891V787.4H411.461Z" fill="#6440FF"/>
<path d="M392.73 657.14V522.12H353.771V657.14H392.73Z" fill="white"/>
<path d="M392.73 675.44V662.8H353.77V675.44H392.73Z" fill="#3D2977"/>
<path d="M372.5 751.27C380.056 751.27 386.18 745.145 386.18 737.59C386.18 730.035 380.056 723.91 372.5 723.91C364.945 723.91 358.82 730.035 358.82 737.59C358.82 745.145 364.945 751.27 372.5 751.27Z" stroke="white" stroke-width="6" stroke-linecap="round" stroke-linejoin="round"/>
<path d="M387.821 616.1H358.871" stroke="#3D2977" stroke-width="6" stroke-linecap="round" stroke-linejoin="round"/>
<path d="M387.821 539.37H358.871" stroke="#3D2977" stroke-width="6" stroke-linecap="round" stroke-linejoin="round"/>
<path d="M387.821 630.97H358.871" stroke="#3D2977" stroke-width="6" stroke-linecap="round" stroke-linejoin="round"/>
<path d="M387.821 645.84H358.871" stroke="#3D2977" stroke-width="6" stroke-linecap="round" stroke-linejoin="round"/>
<path d="M267.641 787.4V497.43H195.071V787.4H267.641Z" fill="#6440FF"/>
<path d="M248.91 657.14V522.12H209.95V657.14H248.91Z" fill="white"/>
<path d="M248.91 675.43V662.79H209.95V675.43H248.91Z" fill="#FE7624"/>
<path d="M228.68 751.27C236.235 751.27 242.36 745.145 242.36 737.59C242.36 730.035 236.235 723.91 228.68 723.91C221.125 723.91 215 730.035 215 737.59C215 745.145 221.125 751.27 228.68 751.27Z" stroke="white" stroke-width="6" stroke-linecap="round" stroke-linejoin="round"/>
<path d="M244.001 616.1H215.051" stroke="#3D2977" stroke-width="6" stroke-linecap="round" stroke-linejoin="round"/>
<path d="M244.001 539.37H215.051" stroke="#3D2977" stroke-width="6" stroke-linecap="round" stroke-linejoin="round"/>
<path d="M244.001 630.97H215.051" stroke="#3D2977" stroke-width="6" stroke-linecap="round" stroke-linejoin="round"/>
<path d="M244.001 645.84H215.051" stroke="#3D2977" stroke-width="6" stroke-linecap="round" stroke-linejoin="round"/>
<path d="M348.25 404.31C348.778 392.64 344.974 381.186 337.57 372.15C325.15 357 325 347.39 318 340.14C311 332.89 299.89 336.2 309.89 360.79C319.89 385.38 324.21 395.48 324.21 395.48L348.25 404.31Z" fill="white" stroke="#3D2977" stroke-width="6" stroke-linecap="round" stroke-linejoin="round"/>
<path d="M291 369.62C292.08 369.62 360.16 366.15 368.27 433.62Z" fill="white"/>
<path d="M291 369.62C292.08 369.62 360.16 366.15 368.27 433.62" stroke="#3D2977" stroke-width="6" stroke-linecap="round" stroke-linejoin="round"/>
<path d="M337.061 504.34C337.061 504.34 328.621 454.53 317.561 437.24C306.501 419.95 281.801 421.24 281.801 421.24C281.801 421.24 219.001 365.57 209.911 355.51C200.821 345.45 204.301 335.86 220.551 347.04C236.801 358.22 285.641 393.65 285.641 393.65C285.641 393.65 367.061 366.08 380.301 444.29L395.301 490.71L337.061 504.34Z" fill="white" stroke="#3D2977" stroke-width="6" stroke-linecap="round" stroke-linejoin="round"/>
<path d="M280.731 418.78C280.731 418.78 248.481 347.13 243.651 333.63C238.821 320.13 245.351 313.01 256.321 330.92C267.291 348.83 292.251 390.33 292.251 390.33" fill="white"/>
<path d="M280.731 418.78C280.731 418.78 248.481 347.13 243.651 333.63C238.821 320.13 245.351 313.01 256.321 330.92C267.291 348.83 292.251 390.33 292.251 390.33" stroke="#3D2977" stroke-width="6" stroke-linecap="round" stroke-linejoin="round"/>
<path d="M277.681 413.05C277.681 413.05 275.111 351.59 275.121 339.68C275.121 320.05 286.911 314.47 289.951 340.93C291.951 358.6 294.221 391.17 294.221 391.17" fill="white"/>
<path d="M277.681 413.05C277.681 413.05 275.111 351.59 275.121 339.68C275.121 320.05 286.911 314.47 289.951 340.93C291.951 358.6 294.221 391.17 294.221 391.17" stroke="#3D2977" stroke-width="6" stroke-linecap="round" stroke-linejoin="round"/>
<path d="M1204 404.31C1203.47 392.641 1207.27 381.186 1214.67 372.15C1227.1 357.01 1227.23 347.39 1234.26 340.15C1241.29 332.91 1252.36 336.21 1242.36 360.8C1232.36 385.39 1228 395.48 1228 395.48L1204 404.31Z" fill="white" stroke="#3D2977" stroke-width="6" stroke-linecap="round" stroke-linejoin="round"/>
<path d="M1261.19 369.62C1260.11 369.62 1192.02 366.15 1183.92 433.62Z" fill="white"/>
<path d="M1261.19 369.62C1260.11 369.62 1192.02 366.15 1183.92 433.62" stroke="#3D2977" stroke-width="6" stroke-linecap="round" stroke-linejoin="round"/>
<path d="M1215.16 504.34C1215.16 504.34 1223.6 454.53 1234.66 437.24C1245.72 419.95 1270.42 421.24 1270.42 421.24C1270.42 421.24 1333.2 365.56 1342.31 355.5C1351.42 345.44 1347.92 335.85 1331.67 347.03C1315.42 358.21 1266.58 393.64 1266.58 393.64C1266.58 393.64 1185.16 366.07 1171.92 444.28L1156.92 490.7L1215.16 504.34Z" fill="white" stroke="#3D2977" stroke-width="6" stroke-linecap="round" stroke-linejoin="round"/>
<path d="M1271.49 418.78C1271.49 418.78 1303.74 347.13 1308.57 333.63C1313.4 320.13 1306.87 313.01 1295.91 330.92C1284.95 348.83 1260 390.33 1260 390.33" fill="white"/>
<path d="M1271.49 418.78C1271.49 418.78 1303.74 347.13 1308.57 333.63C1313.4 320.13 1306.87 313.01 1295.91 330.92C1284.95 348.83 1260 390.33 1260 390.33" stroke="#3D2977" stroke-width="6" stroke-linecap="round" stroke-linejoin="round"/>
<path d="M1274.54 413.05C1274.54 413.05 1277.11 351.59 1277.1 339.68C1277.1 320.05 1265.31 314.47 1262.27 340.93C1260.27 358.6 1258.01 391.17 1258.01 391.17" fill="white"/>
<path d="M1274.54 413.05C1274.54 413.05 1277.11 351.59 1277.1 339.68C1277.1 320.05 1265.31 314.47 1262.27 340.93C1260.27 358.6 1258.01 391.17 1258.01 391.17" stroke="#3D2977" stroke-width="6" stroke-linecap="round" stroke-linejoin="round"/>
<path d="M1233.86 477.59C1235.19 462.29 1233.19 456.23 1233.19 456.23C1198.01 459.95 1169.8 426.35 1169.8 426.35C1169.8 426.35 1166.44 430.15 1156.97 442.35C1147.5 454.55 1129.52 440.77 1118.9 458.29C1110.32 472.45 1079.9 546.66 1068.53 574.61C1034 472 989.61 419.86 917.19 406.74C907.75 349.55 867 277 704.8 289.66C604 307.83 573.24 359.47 580.21 414H579.73C579.73 414 514.47 413.13 477.91 521.74C467.2 496.54 456.33 471.88 451.66 464.16C441.03 446.64 404.74 454.51 395.26 442.34C385.78 430.17 382.42 426.34 382.42 426.34C382.42 426.34 354.22 460 319 456.23C319 456.23 317 462.29 318.34 477.59C319.68 492.89 301.07 494.64 305.22 514.65C309.37 534.66 374.89 714.11 374.89 714.11C381.07 730.79 389.23 782.98 423.09 784.84C423.182 785.083 423.342 785.295 423.552 785.449C423.761 785.603 424.011 785.694 424.27 785.71C477.96 785.56 1134.48 786.11 1134.48 786.11C1134.48 786.11 1134.54 785.4 1134.61 784.06C1163.86 777.16 1171.44 729.84 1177.27 714.11C1177.27 714.11 1242.8 534.66 1246.94 514.65C1251.08 494.64 1232.53 492.89 1233.86 477.59Z" fill="#FE7624"/>
<path d="M1234.16 475.15C1236.67 459.15 1233.57 453.15 1233.57 453.15C1201.43 460.1 1171.73 423.56 1171.73 423.56C1171.73 423.56 1167.73 427.11 1158.15 440.56C1154.28 445.99 1150.34 446.56 1146.33 447.68C1159.68 491.1 1222.21 497.1 1244 497.63C1242.35 488.24 1232.26 487.3 1234.16 475.15Z" fill="#3D2977"/>
<path d="M317.941 475.27C315.431 459.27 318.651 453.19 318.651 453.19C350.801 460.14 380.501 423.6 380.501 423.6C380.501 423.6 385.341 424.14 394.951 437.6C398.821 443.03 405.471 447.6 409.481 448.71C396.141 492.12 329.331 498.01 307.551 498.54C309.191 489.1 319.841 487.43 317.941 475.27Z" fill="#3D2977"/>
<path d="M579.841 410.61C560.301 414.61 540.051 424.87 522.141 444.74C538.811 468.86 597.021 550.9 704.341 568.34C704.26 567.596 704.102 566.862 703.871 566.15C644.391 541.74 586.131 473.83 579.841 410.61Z" fill="#3D2977"/>
<path d="M917.12 406.3C920.84 428.52 919.82 448.47 919.32 460.25C917.67 499.19 900.2 526.36 889.21 545.74L888.43 565.68C933.79 554.99 969.43 470.99 975.53 429.68C959.43 420.85 956.55 414.28 917.12 406.3Z" fill="#3D2977"/>
<path d="M696.721 544.18C696.721 544.18 739.801 618.55 744.291 665.52" stroke="#3D2977" stroke-width="8" stroke-linecap="round" stroke-linejoin="round"/>
<path d="M882.52 539.62C882.52 539.62 862.35 613.09 867.28 660" stroke="#3D2977" stroke-width="8" stroke-linecap="round" stroke-linejoin="round"/>
<path d="M475.24 524.34C475.69 525.71 523.49 627.2 523.49 627.2" stroke="#3D2977" stroke-width="6" stroke-linecap="round" stroke-linejoin="round"/>
<path d="M1071.01 576.8L1038.25 633.81" stroke="#3D2977" stroke-width="6" stroke-linecap="round" stroke-linejoin="round"/>
<path d="M616.591 707C616.591 707 612.591 788.42 570.031 786.52" stroke="#3D2977" stroke-width="6" stroke-linecap="round" stroke-linejoin="round"/>
<path d="M858.471 786.37C849.601 717.64 840.161 616 854.661 573C877.551 505.26 868.661 420.24 853.201 407.93C837.741 395.62 667.001 398 667.001 398L636.311 408.57C636.311 408.57 753.161 517.13 787.761 715.22C793.191 746.28 796.861 770.69 799.301 789.84" fill="white"/>
<path d="M693.572 340.35L691.102 383.68L665.602 401.26C665.602 401.26 732.392 447.51 792.122 516.59C792.122 516.59 828.772 490.68 837.342 408.59L818.122 405.59L726.122 351.09L693.572 340.35Z" fill="white" stroke="#3D2977" stroke-width="6" stroke-linecap="round" stroke-linejoin="round"/>
<path d="M664.67 261.26C664.67 261.26 625.26 266.7 636.44 301.8C647.62 336.9 688.89 311 688.89 311L677.21 260.61L664.67 261.26Z" fill="white" stroke="#3D2977" stroke-width="6" stroke-linecap="round" stroke-linejoin="round"/>
<path d="M758.432 121C768.742 118.9 839.562 105.91 854.282 165.48C869.002 225.05 868.212 292.82 865.102 324.09C861.992 355.36 723.812 357.38 715.772 355.57C707.732 353.76 697.472 345.65 697.472 345.65L668.122 255C668.122 255 647.662 143.66 758.432 121Z" fill="white" stroke="#3D2977" stroke-width="6" stroke-linecap="round" stroke-linejoin="round"/>
<path d="M681.001 252.65C688.361 258.54 710.451 294.87 716.811 312.28C716.811 312.28 758.891 292.05 821.531 283.72C821.531 283.72 855.821 280.38 869.931 282.9C869.931 282.9 874.231 346.7 850.251 382.82C826.271 418.94 766.571 416.68 736.811 400.18C707.051 383.68 701.421 374.79 692.641 354.41C683.861 334.03 658.021 257.23 658.021 257.23L681.001 252.65Z" fill="#968BB4"/>
<path d="M664.651 268.31C664.651 268.31 642.801 241.26 632.231 211.74C622.231 183.99 631.971 152.56 656.521 136.74C677.061 123.51 694.141 130.03 694.141 130.03C694.141 130.03 666.561 92.77 697.231 53.46C702.552 46.6123 709.226 40.9334 716.837 36.7769C724.449 32.6204 732.834 30.0753 741.471 29.3C783.901 25.65 801.061 60.47 801.061 60.47C801.061 60.47 836.831 -29.32 935.281 9.92998C945.211 13.93 957.331 26.73 963.451 35.61C1000.57 89.47 907.181 169.23 855.191 180.73C798.091 193.35 763.191 187.55 742.971 175.35C757.761 182.19 752.081 271.84 664.651 268.31Z" fill="#3D2977"/>
<path d="M814.522 243.94L827.082 298.48L810.932 302.15" stroke="#3D2977" stroke-width="8" stroke-linecap="round" stroke-linejoin="round"/>
<path d="M835.95 265.831C839.029 265.486 841.086 261.283 840.545 256.442C840.003 251.601 837.068 247.956 833.989 248.3C830.91 248.644 828.853 252.848 829.394 257.689C829.935 262.53 832.87 266.175 835.95 265.831Z" fill="#3D2977"/>
<path d="M782.635 269.383C785.714 269.038 787.772 264.835 787.23 259.994C786.689 255.153 783.754 251.508 780.675 251.852C777.596 252.196 775.538 256.4 776.08 261.241C776.621 266.082 779.556 269.727 782.635 269.383Z" fill="#3D2977"/>
<path d="M761.881 246.41C761.881 246.41 784.691 245.05 784.401 229.81" stroke="#3D2977" stroke-width="8" stroke-linecap="round" stroke-linejoin="round"/>
<path d="M827.531 208C827.531 208 842.531 202.09 847.851 214.47" stroke="#3D2977" stroke-width="8" stroke-linecap="round" stroke-linejoin="round"/>
<path d="M809.571 326.47C801.562 327.935 793.412 328.476 785.281 328.08C780.281 327.87 776.49 330.96 777.97 334.08C780.56 339.56 786.751 346.08 801.451 344.37C815.931 342.65 818.82 335.96 818.79 330.81C818.77 327.71 814.101 325.58 809.571 326.47Z" stroke="#3D2977" stroke-width="6" stroke-linecap="round" stroke-linejoin="round"/>
<path d="M843.689 780.15H1151.04V707.58H843.689V780.15Z" fill="#3D2977"/>
<path d="M1007.9 766.203L1142.91 765.567L1142.73 726.607L1007.71 727.244L1007.9 766.203Z" fill="white"/>
<path d="M989.602 766.29L1002.24 766.231L1002.06 727.271L989.419 727.331L989.602 766.29Z" fill="#FE7624"/>
<path d="M908.68 761.96C916.235 761.96 922.36 755.835 922.36 748.28C922.36 740.725 916.235 734.6 908.68 734.6C901.125 734.6 895 740.725 895 748.28C895 755.835 901.125 761.96 908.68 761.96Z" stroke="white" stroke-width="6" stroke-linecap="round" stroke-linejoin="round"/>
<path d="M1110.75 761.3L1110.61 732.35" stroke="#FE7624" stroke-width="6" stroke-linecap="round" stroke-linejoin="round"/>
<path d="M1095.88 761.37L1095.74 732.42" stroke="#FE7624" stroke-width="6" stroke-linecap="round" stroke-linejoin="round"/>
<path d="M1081.01 761.44L1080.87 732.49" stroke="#FE7624" stroke-width="6" stroke-linecap="round" stroke-linejoin="round"/>
<path d="M893.26 715.8H1183.23V639.54H893.26V715.8Z" fill="#3D2977"/>
<path d="M1023.52 693.38H1158.54V654.42H1023.52V693.38Z" fill="white"/>
<path d="M1005.22 693.38H1017.86V654.42H1005.22V693.38Z" fill="#FE7624"/>
<path d="M943.071 686.83C950.626 686.83 956.751 680.705 956.751 673.15C956.751 665.595 950.626 659.47 943.071 659.47C935.515 659.47 929.391 665.595 929.391 673.15C929.391 680.705 935.515 686.83 943.071 686.83Z" stroke="white" stroke-width="6" stroke-linecap="round" stroke-linejoin="round"/>
<path d="M1064.56 688.47V659.52" stroke="#FE7624" stroke-width="6" stroke-linecap="round" stroke-linejoin="round"/>
<path d="M1141.29 688.47V659.52" stroke="#FE7624" stroke-width="6" stroke-linecap="round" stroke-linejoin="round"/>
<path d="M1049.69 688.47V659.52" stroke="#FE7624" stroke-width="6" stroke-linecap="round" stroke-linejoin="round"/>
<path d="M1034.82 688.47V659.52" stroke="#FE7624" stroke-width="6" stroke-linecap="round" stroke-linejoin="round"/>
<path d="M1487.55 533.7H1128.4V787.02H1487.55V533.7Z" fill="#6440FF"/>
<path d="M1329.91 531.29V788.47Z" fill="#3D2977"/>
<path d="M1329.91 531.29V788.47" stroke="white" stroke-width="6" stroke-linejoin="round"/>
<path d="M1281.56 561.76H1444.07" stroke="white" stroke-width="6" stroke-linecap="round" stroke-linejoin="round"/>
<path d="M1379.88 652.77H1484.29" stroke="white" stroke-width="6" stroke-linecap="round" stroke-linejoin="round"/>
<path d="M1265.31 737.68H1468.86" stroke="white" stroke-width="6" stroke-linecap="round" stroke-linejoin="round"/>
<path d="M1293.75 630.02H1188.53" stroke="white" stroke-width="6" stroke-linecap="round" stroke-linejoin="round"/>
<path d="M1128.8 590.2H1192.59" stroke="white" stroke-width="6" stroke-linecap="round" stroke-linejoin="round"/>
<path d="M1128.4 707.21H1253.12" stroke="white" stroke-width="6" stroke-linecap="round" stroke-linejoin="round"/>
<path d="M1127.86 590.6C1101.04 601.16 1128.67 618.83 1128.67 618.83C1128.67 618.83 1135.58 598.83 1170.92 590.68L1127.86 590.6Z" fill="#6440FF" stroke="white" stroke-width="6" stroke-linecap="round" stroke-linejoin="round"/>
<path d="M1488.6 652.35C1515.41 662.91 1487.78 680.59 1487.78 680.59C1487.78 680.59 1480.88 660.59 1445.53 652.43L1488.6 652.35Z" fill="#6440FF" stroke="white" stroke-width="6" stroke-linecap="round" stroke-linejoin="round"/>
<path d="M1222.66 707.39C1222.66 707.39 1160.43 719.13 1161.97 755.74C1161.97 755.74 1112.09 737.44 1128.97 707.39H1222.66Z" fill="#6440FF" stroke="white" stroke-width="6" stroke-linecap="round" stroke-linejoin="round"/>
<path d="M4 786.71H1689" stroke="#3D2977" stroke-width="8" stroke-linecap="round" stroke-linejoin="round"/>
</svg>
