<svg width="1672" height="749" viewBox="0 0 1672 749" fill="none" xmlns="http://www.w3.org/2000/svg">
<g clip-path="url(#clip0_305_2652)">
<path d="M213.749 229.33H226.799C229.846 229.33 232.769 230.541 234.924 232.695C237.079 234.85 238.289 237.773 238.289 240.82V744.82H202.289V240.82C202.289 237.778 203.495 234.86 205.644 232.706C207.792 230.552 210.707 229.338 213.749 229.33Z" fill="#3D2977"/>
<path d="M868.399 229.33H881.449C884.497 229.33 887.419 230.541 889.574 232.695C891.729 234.85 892.939 237.773 892.939 240.82V744.82H856.939V240.82C856.939 237.778 858.146 234.86 860.294 232.706C862.442 230.552 865.357 229.338 868.399 229.33Z" fill="#3D2977"/>
<path d="M915.549 284.14H139.189V371.99H915.549V284.14Z" fill="#FE7624"/>
<path d="M261.129 284.14H197.109L139.189 369.34V371.99H201.409L261.129 284.14Z" fill="white"/>
<path d="M333.559 371.99L393.279 284.14H329.249L269.539 371.99H333.559Z" fill="white"/>
<path d="M465.71 371.99L525.42 284.14H461.4L401.68 371.99H465.71Z" fill="white"/>
<path d="M597.85 371.99L657.57 284.14H593.55L533.83 371.99H597.85Z" fill="white"/>
<path d="M729.999 371.99L789.719 284.14H725.689L665.979 371.99H729.999Z" fill="white"/>
<path d="M862.149 371.99L915.549 293.43V284.14H857.839L798.119 371.99H862.149Z" fill="white"/>
<path d="M915.549 439.76H139.189V527.61H915.549V439.76Z" fill="#FE7624"/>
<path d="M261.129 439.76H197.109L139.189 524.96V527.61H201.409L261.129 439.76Z" fill="white"/>
<path d="M333.559 527.61L393.279 439.76H329.249L269.539 527.61H333.559Z" fill="white"/>
<path d="M465.71 527.61L525.42 439.76H461.4L401.68 527.61H465.71Z" fill="white"/>
<path d="M597.85 527.61L657.57 439.76H593.55L533.83 527.61H597.85Z" fill="white"/>
<path d="M729.999 527.61L789.719 439.76H725.689L665.979 527.61H729.999Z" fill="white"/>
<path d="M862.149 527.61L915.549 449.05V439.76H857.839L798.119 527.61H862.149Z" fill="white"/>
<path d="M1455.46 6.35001H1379.89H424.89C418.215 6.35526 411.606 7.67521 405.441 10.2345C399.276 12.7938 393.675 16.5423 388.959 21.266C384.243 25.9898 380.503 31.5962 377.954 37.7652C375.404 43.9341 374.094 50.5449 374.1 57.22V606.31C374.1 612.985 375.414 619.594 377.969 625.76C380.524 631.927 384.268 637.53 388.988 642.249C393.708 646.968 399.312 650.711 405.479 653.264C411.645 655.818 418.255 657.131 424.93 657.13H1455.46C1467.99 657.13 1480 652.154 1488.86 643.297C1497.72 634.44 1502.7 622.427 1502.7 609.9V53.59C1502.7 41.0612 1497.72 29.0455 1488.86 20.1863C1480 11.3271 1467.99 6.35001 1455.46 6.35001Z" fill="#6440FF"/>
<path d="M436.8 53.78C444.83 53.78 451.34 47.2702 451.34 39.24C451.34 31.2098 444.83 24.7 436.8 24.7C428.77 24.7 422.26 31.2098 422.26 39.24C422.26 47.2702 428.77 53.78 436.8 53.78Z" fill="#FE7624"/>
<path d="M493.329 53.78C501.359 53.78 507.869 47.2702 507.869 39.24C507.869 31.2098 501.359 24.7 493.329 24.7C485.299 24.7 478.789 31.2098 478.789 39.24C478.789 47.2702 485.299 53.78 493.329 53.78Z" fill="#FEBA91"/>
<path d="M549.86 53.78C557.891 53.78 564.4 47.2702 564.4 39.24C564.4 31.2098 557.891 24.7 549.86 24.7C541.83 24.7 535.32 31.2098 535.32 39.24C535.32 47.2702 541.83 53.78 549.86 53.78Z" fill="white"/>
<path d="M1115.16 72.31L1114.77 658.38" stroke="white" stroke-width="6" stroke-linejoin="round"/>
<path d="M1457.55 72.71H374.289" stroke="white" stroke-width="6" stroke-linecap="round" stroke-linejoin="round"/>
<path d="M1238.51 211.1H1236.19C1233.73 211.1 1231.74 213.092 1231.74 215.55V222.02C1231.74 224.478 1233.73 226.47 1236.19 226.47H1238.51C1240.97 226.47 1242.96 224.478 1242.96 222.02V215.55C1242.96 213.092 1240.97 211.1 1238.51 211.1Z" fill="#FE7624"/>
<path d="M1222.43 211.1H1155.3C1152.54 211.1 1150.3 213.339 1150.3 216.1V221.47C1150.3 224.231 1152.54 226.47 1155.3 226.47H1222.43C1225.19 226.47 1227.43 224.231 1227.43 221.47V216.1C1227.43 213.339 1225.19 211.1 1222.43 211.1Z" fill="#3D2977"/>
<path d="M1229.41 282.47H1155.3C1152.54 282.47 1150.3 284.709 1150.3 287.47V292.84C1150.3 295.601 1152.54 297.84 1155.3 297.84H1229.41C1232.17 297.84 1234.41 295.601 1234.41 292.84V287.47C1234.41 284.709 1232.17 282.47 1229.41 282.47Z" fill="#3D2977"/>
<path d="M1297.01 258.71H1176.56C1173.8 258.71 1171.56 260.949 1171.56 263.71V269.08C1171.56 271.841 1173.8 274.08 1176.56 274.08H1297.01C1299.77 274.08 1302.01 271.841 1302.01 269.08V263.71C1302.01 260.949 1299.77 258.71 1297.01 258.71Z" fill="#FE7624"/>
<path d="M1275.97 175.52H1155.52C1152.76 175.52 1150.52 177.759 1150.52 180.52V185.89C1150.52 188.651 1152.76 190.89 1155.52 190.89H1275.97C1278.73 190.89 1280.97 188.651 1280.97 185.89V180.52C1280.97 177.759 1278.73 175.52 1275.97 175.52Z" fill="#FEBA91"/>
<path d="M1275.97 358.55H1155.52C1152.76 358.55 1150.52 360.789 1150.52 363.55V368.92C1150.52 371.681 1152.76 373.92 1155.52 373.92H1275.97C1278.73 373.92 1280.97 371.681 1280.97 368.92V363.55C1280.97 360.789 1278.73 358.55 1275.97 358.55Z" fill="#FEBA91"/>
<path d="M1374.77 258.71H1314.31C1311.55 258.71 1309.31 260.949 1309.31 263.71V269.08C1309.31 271.841 1311.55 274.08 1314.31 274.08H1374.77C1377.53 274.08 1379.77 271.841 1379.77 269.08V263.71C1379.77 260.949 1377.53 258.71 1374.77 258.71Z" fill="#FEBA91"/>
<path d="M1399.18 234.95H1396.86C1394.4 234.95 1392.41 236.942 1392.41 239.4V245.87C1392.41 248.328 1394.4 250.32 1396.86 250.32H1399.18C1401.64 250.32 1403.63 248.328 1403.63 245.87V239.4C1403.63 236.942 1401.64 234.95 1399.18 234.95Z" fill="#3D2977"/>
<path d="M1280.2 234.9H1155.3C1152.54 234.9 1150.3 237.139 1150.3 239.9V245.27C1150.3 248.031 1152.54 250.27 1155.3 250.27H1280.2C1282.96 250.27 1285.2 248.031 1285.2 245.27V239.9C1285.2 237.139 1282.96 234.9 1280.2 234.9Z" fill="#3D2977"/>
<path d="M1320.03 211.1H1252.9C1250.14 211.1 1247.9 213.339 1247.9 216.1V221.47C1247.9 224.231 1250.14 226.47 1252.9 226.47H1320.03C1322.79 226.47 1325.03 224.231 1325.03 221.47V216.1C1325.03 213.339 1322.79 211.1 1320.03 211.1Z" fill="#3D2977"/>
<path d="M1381.37 234.86H1296.22C1293.46 234.86 1291.22 237.099 1291.22 239.86V245.32C1291.22 248.081 1293.46 250.32 1296.22 250.32H1381.37C1384.13 250.32 1386.37 248.081 1386.37 245.32V239.86C1386.37 237.099 1384.13 234.86 1381.37 234.86Z" fill="#FE7624"/>
<path d="M1222.43 418.94H1155.3C1152.54 418.94 1150.3 421.179 1150.3 423.94V429.31C1150.3 432.071 1152.54 434.31 1155.3 434.31H1222.43C1225.19 434.31 1227.43 432.071 1227.43 429.31V423.94C1227.43 421.179 1225.19 418.94 1222.43 418.94Z" fill="#3D2977"/>
<path d="M1229.41 490.31H1155.3C1152.54 490.31 1150.3 492.549 1150.3 495.31V500.68C1150.3 503.441 1152.54 505.68 1155.3 505.68H1229.41C1232.17 505.68 1234.41 503.441 1234.41 500.68V495.31C1234.41 492.549 1232.17 490.31 1229.41 490.31Z" fill="#3D2977"/>
<path d="M1297.01 466.55H1176.56C1173.8 466.55 1171.56 468.789 1171.56 471.55V476.92C1171.56 479.681 1173.8 481.92 1176.56 481.92H1297.01C1299.77 481.92 1302.01 479.681 1302.01 476.92V471.55C1302.01 468.789 1299.77 466.55 1297.01 466.55Z" fill="#FE7624"/>
<path d="M1374.77 466.55H1314.31C1311.55 466.55 1309.31 468.789 1309.31 471.55V476.92C1309.31 479.681 1311.55 481.92 1314.31 481.92H1374.77C1377.53 481.92 1379.77 479.681 1379.77 476.92V471.55C1379.77 468.789 1377.53 466.55 1374.77 466.55Z" fill="#FEBA91"/>
<path d="M1399.18 442.79H1396.86C1394.4 442.79 1392.41 444.782 1392.41 447.24V453.71C1392.41 456.168 1394.4 458.16 1396.86 458.16H1399.18C1401.64 458.16 1403.63 456.168 1403.63 453.71V447.24C1403.63 444.782 1401.64 442.79 1399.18 442.79Z" fill="#3D2977"/>
<path d="M1418.79 418.94H1416.47C1414.01 418.94 1412.02 420.932 1412.02 423.39V429.86C1412.02 432.318 1414.01 434.31 1416.47 434.31H1418.79C1421.25 434.31 1423.24 432.318 1423.24 429.86V423.39C1423.24 420.932 1421.25 418.94 1418.79 418.94Z" fill="#3D2977"/>
<path d="M1280.2 442.74H1155.3C1152.54 442.74 1150.3 444.979 1150.3 447.74V453.11C1150.3 455.871 1152.54 458.11 1155.3 458.11H1280.2C1282.96 458.11 1285.2 455.871 1285.2 453.11V447.74C1285.2 444.979 1282.96 442.74 1280.2 442.74Z" fill="#3D2977"/>
<path d="M1320.03 418.94H1236.74C1233.98 418.94 1231.74 421.179 1231.74 423.94V429.31C1231.74 432.071 1233.98 434.31 1236.74 434.31H1320.03C1322.79 434.31 1325.03 432.071 1325.03 429.31V423.94C1325.03 421.179 1322.79 418.94 1320.03 418.94Z" fill="#FE7624"/>
<path d="M1403.1 418.94H1335.97C1333.21 418.94 1330.97 421.179 1330.97 423.94V429.31C1330.97 432.071 1333.21 434.31 1335.97 434.31H1403.1C1405.86 434.31 1408.1 432.071 1408.1 429.31V423.94C1408.1 421.179 1405.86 418.94 1403.1 418.94Z" fill="#FE7624"/>
<path d="M1238.51 395.91H1236.19C1233.73 395.91 1231.74 397.902 1231.74 400.36V406.83C1231.74 409.288 1233.73 411.28 1236.19 411.28H1238.51C1240.97 411.28 1242.96 409.288 1242.96 406.83V400.36C1242.96 397.902 1240.97 395.91 1238.51 395.91Z" fill="#FE7624"/>
<path d="M1222.43 395.91H1155.3C1152.54 395.91 1150.3 398.149 1150.3 400.91V406.28C1150.3 409.041 1152.54 411.28 1155.3 411.28H1222.43C1225.19 411.28 1227.43 409.041 1227.43 406.28V400.91C1227.43 398.149 1225.19 395.91 1222.43 395.91Z" fill="#3D2977"/>
<path d="M1320.03 395.91H1252.9C1250.14 395.91 1247.9 398.149 1247.9 400.91V406.28C1247.9 409.041 1250.14 411.28 1252.9 411.28H1320.03C1322.79 411.28 1325.03 409.041 1325.03 406.28V400.91C1325.03 398.149 1322.79 395.91 1320.03 395.91Z" fill="#3D2977"/>
<path d="M1381.37 442.7H1296.22C1293.46 442.7 1291.22 444.939 1291.22 447.7V453.16C1291.22 455.921 1293.46 458.16 1296.22 458.16H1381.37C1384.13 458.16 1386.37 455.921 1386.37 453.16V447.7C1386.37 444.939 1384.13 442.7 1381.37 442.7Z" fill="#FE7624"/>
<path d="M846.308 608.27H963.308C970.173 608.27 975.738 602.705 975.738 595.84V475.97C975.738 469.105 970.173 463.54 963.308 463.54H846.308C839.443 463.54 833.878 469.105 833.878 475.97V595.84C833.878 602.705 839.443 608.27 846.308 608.27Z" stroke="white" stroke-width="6" stroke-linejoin="round"/>
<path d="M801.078 483.42H709.438" stroke="white" stroke-width="6" stroke-linecap="round" stroke-linejoin="round"/>
<path d="M801.688 523.7H534.158" stroke="white" stroke-width="6" stroke-linecap="round" stroke-linejoin="round"/>
<path d="M801.688 547.69H534.158" stroke="white" stroke-width="6" stroke-linecap="round" stroke-linejoin="round"/>
<path d="M801.688 571.67H534.158" stroke="white" stroke-width="6" stroke-linecap="round" stroke-linejoin="round"/>
<path d="M801.688 596.27H534.158" stroke="white" stroke-width="6" stroke-linecap="round" stroke-linejoin="round"/>
<path d="M837.277 603.32L972.597 466.69" stroke="white" stroke-width="6" stroke-linecap="round" stroke-linejoin="round"/>
<path d="M663.588 273.76H546.588C539.723 273.76 534.158 279.325 534.158 286.19V406.06C534.158 412.925 539.723 418.49 546.588 418.49H663.588C670.453 418.49 676.018 412.925 676.018 406.06V286.19C676.018 279.325 670.453 273.76 663.588 273.76Z" stroke="white" stroke-width="6" stroke-linejoin="round"/>
<path d="M708.828 293.65H800.458" stroke="white" stroke-width="6" stroke-linecap="round" stroke-linejoin="round"/>
<path d="M708.209 333.93H975.739" stroke="white" stroke-width="6" stroke-linecap="round" stroke-linejoin="round"/>
<path d="M708.209 357.92H975.739" stroke="white" stroke-width="6" stroke-linecap="round" stroke-linejoin="round"/>
<path d="M708.209 381.9H975.739" stroke="white" stroke-width="6" stroke-linecap="round" stroke-linejoin="round"/>
<path d="M708.209 405.89H975.739" stroke="white" stroke-width="6" stroke-linecap="round" stroke-linejoin="round"/>
<path d="M537.129 413.78L672.459 277.15" stroke="white" stroke-width="6" stroke-linecap="round" stroke-linejoin="round"/>
<path d="M1060.81 119.32H420.86C414.271 119.32 408.93 124.661 408.93 131.25V231.01C408.93 237.599 414.271 242.94 420.86 242.94H1060.81C1067.4 242.94 1072.74 237.599 1072.74 231.01V131.25C1072.74 124.661 1067.4 119.32 1060.81 119.32Z" stroke="white" stroke-width="6" stroke-linecap="round" stroke-linejoin="round"/>
<path d="M1406.73 3C1420.24 3.04766 1433.19 8.457 1442.72 18.04C1452.24 27.623 1457.58 40.596 1457.55 54.11V606.29" stroke="white" stroke-width="6" stroke-linecap="round" stroke-linejoin="round"/>
<path d="M1173.47 695.34L1187.58 696.63C1187.88 695.52 1188.19 694.42 1188.51 693.32L1189.01 604.39C1189.02 602.912 1189.32 601.45 1189.89 600.087C1190.46 598.724 1191.3 597.488 1192.35 596.449C1193.4 595.41 1194.65 594.588 1196.02 594.03C1197.39 593.473 1198.85 593.191 1200.33 593.2L1260.54 593.54C1291.27 572.088 1327.89 560.679 1365.37 560.88C1465.55 561.44 1547.61 644.17 1547.37 744.36L1171.52 744.09C1168.75 744.09 1166.01 743.543 1163.46 742.48C1160.9 741.417 1158.58 739.86 1156.63 737.897C1154.68 735.934 1153.13 733.605 1152.08 731.043C1151.04 728.481 1150.5 725.738 1150.52 722.97V716.15C1150.53 713.236 1151.15 710.357 1152.34 707.696C1153.53 705.035 1155.25 702.65 1157.41 700.692C1159.57 698.735 1162.11 697.248 1164.88 696.327C1167.64 695.406 1170.57 695.069 1173.47 695.34Z" fill="#FE7624"/>
<path d="M1529 682.63C1529 682.63 1498.25 678.24 1489.3 713.17C1488.44 716.56 1486.66 731.79 1486.66 731.79C1486.66 731.79 1297.5 736.65 1192.72 697.11C1192.72 697.11 1189.85 667.56 1227.94 626.03" stroke="#3D2977" stroke-width="6" stroke-linecap="round" stroke-linejoin="round"/>
<path d="M618.589 708.42H591.819L495.759 455.51C490.459 441.57 474.179 441.8 469.149 455.9L379.079 708.42H352.909C347.459 708.42 343.039 713.83 343.039 720.49V736.49C343.039 743.16 347.459 748.56 352.909 748.56H618.589C624.039 748.56 628.449 743.16 628.449 736.49V720.49C628.449 713.83 623.999 708.42 618.589 708.42Z" fill="#FE7624"/>
<path d="M382.969 708.42H587.309" stroke="#3D2977" stroke-width="6" stroke-linecap="round" stroke-linejoin="round"/>
<path d="M578.049 671.28H392.309L407.259 628.96H561.959L578.049 671.28Z" fill="white"/>
<path d="M424.898 579.95H543.018L526.948 537.63H439.998L424.898 579.95Z" fill="white"/>
<path d="M806.64 726.25H791.77L738.42 585.78C735.48 578.03 726.42 578.16 723.64 585.99L673.64 726.25H659.08C656.08 726.25 653.6 729.25 653.6 732.95V741.82C653.6 745.52 656.05 748.52 659.08 748.52H806.64C809.64 748.52 812.12 745.52 812.12 741.82V733C812.12 729.25 809.67 726.25 806.64 726.25Z" fill="#FE7624"/>
<path d="M675.77 726.25H789.27" stroke="#3D2977" stroke-width="6" stroke-linecap="round" stroke-linejoin="round"/>
<path d="M784.129 705.62H680.959L689.269 682.11H775.189L784.129 705.62Z" fill="white"/>
<path d="M699.068 654.89H764.668L755.738 631.38H707.448L699.068 654.89Z" fill="white"/>
<path d="M3 745.33H1668.54" stroke="#3D2977" stroke-width="6" stroke-linecap="round" stroke-linejoin="round"/>
</g>
<defs>
<clipPath id="clip0_305_2652">
<rect width="1671.54" height="748.52" fill="white"/>
</clipPath>
</defs>
</svg>
