<svg width="50" height="50" viewBox="0 0 50 50" fill="none" xmlns="http://www.w3.org/2000/svg">
<circle cx="25" cy="25" r="25" fill="#111111"/>
<path d="M30.6667 39.0357V33.8757C30.7167 33.2399 30.6308 32.6008 30.4147 32.0008C30.1986 31.4008 29.8572 30.8536 29.4133 30.3957C33.6 29.9291 38 28.3424 38 21.0624C37.9997 19.2008 37.2836 17.4107 36 16.0624C36.6078 14.4337 36.5648 12.6335 35.88 11.0357C35.88 11.0357 34.3067 10.5691 30.6667 13.0091C27.6107 12.1808 24.3893 12.1808 21.3333 13.0091C17.6933 10.5691 16.12 11.0357 16.12 11.0357C15.4352 12.6335 15.3922 14.4337 16 16.0624C14.7068 17.4207 13.99 19.227 14 21.1024C14 28.3291 18.4 29.9157 22.5867 30.4357C22.148 30.889 21.8097 31.4296 21.5937 32.0223C21.3778 32.615 21.2891 33.2465 21.3333 33.8757V39.0357M21.3333 35.0357C14.6667 37.0357 14.6667 31.7024 12 31.0357L21.3333 35.0357Z" stroke="white" stroke-width="3" stroke-linecap="round" stroke-linejoin="round"/>
</svg>
