<svg width="50" height="50" viewBox="0 0 50 50" fill="none" xmlns="http://www.w3.org/2000/svg">
<circle cx="25" cy="25" r="25" fill="#0D66C2"/>
<path d="M30.5997 20.4C32.8275 20.4 34.9641 21.285 36.5394 22.8603C38.1147 24.4356 38.9997 26.5722 38.9997 28.8V38.6H33.3997V28.8C33.3997 28.0574 33.1047 27.3452 32.5796 26.8201C32.0545 26.295 31.3423 26 30.5997 26C29.8571 26 29.1449 26.295 28.6198 26.8201C28.0947 27.3452 27.7997 28.0574 27.7997 28.8V38.6H22.1997V28.8C22.1997 26.5722 23.0847 24.4356 24.66 22.8603C26.2353 21.285 28.3719 20.4 30.5997 20.4V20.4Z" fill="white"/>
<path d="M16.6 21.8001H11V38.6001H16.6V21.8001Z" fill="white"/>
<path d="M13.8 17.6C15.3464 17.6 16.6 16.3464 16.6 14.8C16.6 13.2536 15.3464 12 13.8 12C12.2536 12 11 13.2536 11 14.8C11 16.3464 12.2536 17.6 13.8 17.6Z" fill="white"/>
</svg>
