<svg width="97" height="132" viewBox="0 0 97 132" fill="none" xmlns="http://www.w3.org/2000/svg">
<path d="M0.833313 105.719L16.9655 2.49061C17.1627 1.22461 18.1473 0.226614 19.4105 0.012014C20.6737 -0.202586 21.9325 0.414814 22.5365 1.54471L39.22 32.662L45.87 20.0005C46.385 19.0215 47.4003 18.4085 48.5066 18.4085C49.6129 18.4085 50.6281 19.0215 51.1432 20.0005L96.1659 105.719L0.833313 105.719Z" fill="#FFA000"/>
<path d="M56.566 65.5074L39.2124 32.6472L0.833374 105.719L56.566 65.5074Z" fill="#F57C00"/>
<path d="M96.1666 105.719L83.8106 29.2584C83.6239 28.1604 82.8403 27.2584 81.7791 26.9184C80.7179 26.5784 79.5565 26.8614 78.7684 27.6486L0.833374 105.718L43.9568 129.901C46.6648 131.413 49.9628 131.413 52.6708 129.901L96.1666 105.718V105.719Z" fill="#FFCA28"/>
<path d="M83.8105 29.2584C83.6238 28.1604 82.8402 27.2584 81.779 26.9184C80.7178 26.5784 79.5564 26.8614 78.7683 27.6486L63.3 43.1562L51.1365 20C50.6215 19.021 49.6062 18.408 48.4999 18.408C47.3936 18.408 46.3784 19.021 45.8633 20L39.2133 32.6615L22.529 1.54473C21.924 0.414527 20.6637 -0.201873 19.399 0.0143269C18.1343 0.230527 17.153 1.23103 16.958 2.49803L0.833311 105.719H0.781311L0.833311 105.778L1.25781 105.987L78.7458 28.4093C79.5335 27.6178 80.6978 27.3333 81.7618 27.6723C82.8258 28.0113 83.6108 28.9168 83.7956 30.018L96.0474 105.793L96.1666 105.719L83.8105 29.2584ZM0.974812 105.577L16.9655 3.22803C17.1603 1.96103 18.1439 0.960527 19.4075 0.744327C20.6711 0.528127 21.9315 1.14433 22.5375 2.27473L39.22 33.392L45.87 20.7305C46.385 19.7515 47.4003 19.1385 48.5066 19.1385C49.6129 19.1385 50.6281 19.7515 51.1432 20.7305L63.0599 43.3945L0.974812 105.577Z" fill="white" fill-opacity="0.2"/>
<path opacity="0.2" d="M52.6708 129.172C49.9628 130.684 46.6648 130.684 43.9568 129.172L0.937613 105.056L0.833313 105.719L43.9567 129.895C46.6647 131.407 49.9627 131.407 52.6707 129.895L96.1665 105.719L96.0548 105.034L52.6708 129.172Z" fill="#A52714"/>
<path d="M83.687 29.2742C83.501 28.1765 82.72 27.2742 81.6626 26.9362C80.6052 26.5982 79.4478 26.8792 78.6624 27.6662L63.2473 43.166L51.1273 20.0205C50.614 19.0419 49.6023 18.4291 48.5 18.4291C47.3977 18.4291 46.386 19.0419 45.8727 20.0205L39.245 32.6765L22.62 1.57257C22.017 0.442871 20.7612 -0.173429 19.502 0.0428713C18.2428 0.259171 17.2626 1.25887 17.0685 2.52557L1 105.701L43.9727 129.866C46.6712 131.378 49.9577 131.378 52.6563 129.866L96 105.701L83.687 29.274V29.2742Z" fill="url(#paint0_linear_234_679)"/>
<defs>
<linearGradient id="paint0_linear_234_679" x1="-330.55" y1="2229.62" x2="11524.6" y2="8483.07" gradientUnits="userSpaceOnUse">
<stop stop-color="white" stop-opacity="0.1"/>
<stop offset="0.14" stop-color="white" stop-opacity="0.08"/>
<stop offset="0.61" stop-color="white" stop-opacity="0.02"/>
<stop offset="1" stop-color="white" stop-opacity="0"/>
</linearGradient>
</defs>
</svg>
