<svg height="512pt" viewBox="0 -36 512 511" width="512pt" xmlns="http://www.w3.org/2000/svg"><path d="m512 19.199219v401.722656c0 10.3125-8.390625 18.699219-18.699219 18.699219h-474.613281c-10.308594 0-18.6875-8.386719-18.6875-18.699219v-401.722656c0-10.308594 8.378906-18.699219 18.6875-18.699219h474.613281c10.308594 0 18.699219 8.390625 18.699219 18.699219zm0 0" fill="#76c8ff"/><path d="m512 19.199219v401.722656c0 10.3125-8.390625 18.699219-18.699219 18.699219h-237.289062v-439.121094h237.289062c10.308594 0 18.699219 8.390625 18.699219 18.699219zm0 0" fill="#279eff"/><path d="m512 19.199219v49.078125h-205.082031l-32.007813 26.457031h-274.910156v-75.535156c0-10.308594 8.378906-18.699219 18.6875-18.699219h474.613281c10.308594 0 18.699219 8.390625 18.699219 18.699219zm0 0" fill="#e6e4f9"/><g fill="#fff"><path d="m111.886719 63.957031c-.480469 0-.980469-.023437-1.472657-.070312-.488281-.050781-.976562-.121094-1.460937-.222657-.46875-.097656-.949219-.21875-1.417969-.359374-.46875-.140626-.929687-.308594-1.378906-.5-.453125-.179688-.898438-.390626-1.332031-.617188-.429688-.230469-.859375-.492188-1.257813-.761719-.410156-.269531-.8125-.558593-1.191406-.871093-.378906-.308594-.75-.648438-1.089844-.988282-.351562-.351562-.679687-.71875-.988281-1.101562-.3125-.367188-.609375-.769532-.882813-1.179688-.269531-.410156-.519531-.828125-.75-1.257812-.226562-.429688-.4375-.882813-.628906-1.332032-.179687-.449218-.351562-.917968-.488281-1.378906-.152344-.46875-.273437-.949218-.359375-1.429687-.101562-.480469-.171875-.96875-.222656-1.449219-.050782-.492188-.078125-.992188-.078125-1.480469 0-.492187.027343-.980469.078125-1.472656.050781-.488281.121094-.976563.222656-1.457031.089844-.480469.207031-.949219.359375-1.421875.140625-.46875.308594-.929688.488281-1.378907.191406-.449218.398438-.898437.628906-1.332031.230469-.429687.480469-.859375.75-1.257812.273438-.410157.570313-.808594.882813-1.191407.308594-.378906.640625-.75.988281-1.089843.339844-.347657.710938-.679688 1.089844-.988281.382812-.3125.78125-.609376 1.191406-.878907.398438-.273437.828125-.523437 1.257813-.75.433593-.230469.878906-.441406 1.332031-.632812.449219-.1875.910156-.347657 1.378906-.488281.46875-.152344.949219-.269532 1.417969-.359376.480469-.101562.972656-.179687 1.460937-.222656.980469-.097656 1.972657-.097656 2.949219 0 .480469.042969.972657.121094 1.453125.222656.476563.089844.957032.207032 1.429688.359376.457031.140624.929687.300781 1.378906.488281.449219.191406.898438.402343 1.328125.632812.433594.226563.851563.476563 1.261719.75.410156.269531.808594.566407 1.179687.878907.390625.308593.75.640624 1.101563.988281.351562.339843.679687.710937.988281 1.089843.3125.382813.601563.78125.878906 1.191407.261719.398437.523438.828125.75 1.257812.230469.433594.441407.882813.621094 1.332031.191406.449219.359375.910157.5 1.378907.140625.472656.261719.941406.359375 1.421875.101562.480468.171875.96875.222656 1.457031.046875.492187.070313.980469.070313 1.472656 0 .488281-.023438.988281-.070313 1.480469-.050781.480469-.121094.96875-.222656 1.449219s-.21875.960937-.359375 1.429687c-.140625.460938-.308594.929688-.5 1.378906-.179687.449219-.390625.902344-.621094 1.332032-.226562.429687-.488281.847656-.75 1.257812-.277343.410156-.566406.8125-.878906 1.179688-.308594.382812-.640625.75-.988281 1.101562-.351563.339844-.710938.679688-1.101563.988282-.371093.3125-.769531.601562-1.179687.871093s-.828125.53125-1.261719.761719c-.429687.226562-.878906.4375-1.328125.617188-.449219.191406-.921875.359374-1.378906.5-.472656.140624-.949219.261718-1.429688.359374-.484375.101563-.972656.171876-1.453125.222657-.488281.046875-.988281.070312-1.476562.070312zm0 0"/><path d="m63.886719 63.957031c-.488281 0-.980469-.023437-1.46875-.070312-.492188-.050781-.980469-.121094-1.460938-.222657-.480469-.097656-.949219-.21875-1.421875-.359374-.46875-.140626-.929687-.308594-1.378906-.5-.449219-.179688-.898438-.390626-1.328125-.617188-.429687-.230469-.859375-.492188-1.261719-.761719-.410156-.269531-.808594-.558593-1.191406-.871093-.378906-.308594-.75-.640626-1.089844-.988282-.347656-.351562-.679687-.71875-.988281-1.101562-.308594-.367188-.609375-.769532-.878906-1.179688s-.519531-.828125-.75-1.257812c-.230469-.429688-.441407-.882813-.632813-1.332032-.179687-.449218-.347656-.917968-.488281-1.378906-.148437-.46875-.269531-.949218-.359375-1.429687-.101562-.480469-.167969-.96875-.21875-1.449219-.050781-.492188-.082031-.992188-.082031-1.480469 0-.492187.03125-.980469.082031-1.472656.050781-.488281.117188-.976563.21875-1.457031.089844-.480469.210938-.949219.359375-1.421875.140625-.46875.3125-.929688.488281-1.378907.191406-.460937.402344-.898437.632813-1.332031.230469-.429687.480469-.859375.75-1.257812.269531-.410157.570312-.808594.878906-1.191407.3125-.378906.640625-.75.988281-1.089843.339844-.347657.710938-.679688 1.089844-.988281.382812-.3125.78125-.609376 1.191406-.878907.402344-.273437.832032-.523437 1.261719-.75.429687-.230469.878906-.441406 1.328125-.632812.449219-.179688.910156-.347657 1.378906-.488281.472656-.152344.941406-.269532 1.421875-.359376.480469-.101562.96875-.171874 1.460938-.222656.980469-.097656 1.96875-.097656 2.949219 0 .480468.050782.96875.121094 1.449218.222656.480469.089844.960938.207032 1.429688.359376.460937.140624.929687.308593 1.378906.488281.453125.191406.902344.402343 1.332031.632812.429688.226563.851563.476563 1.261719.75.40625.269531.808594.566407 1.179688.878907.378906.308593.75.640624 1.097656.988281.351562.339843.683594.710937.992187 1.089843.308594.382813.597657.78125.867188 1.191407.273437.398437.53125.828125.761719 1.257812.230468.433594.441406.871094.621093 1.332031.1875.449219.359375.910157.5 1.378907.136719.472656.257813.941406.359375 1.421875.097656.480468.167969.96875.21875 1.457031.050782.492187.070313.980469.070313 1.472656 0 .488281-.019531.988281-.070313 1.480469-.050781.480469-.121094.96875-.21875 1.449219-.101562.480469-.222656.960937-.359375 1.429687-.140625.460938-.3125.929688-.5 1.378906-.179687.449219-.390625.902344-.621093 1.332032-.230469.429687-.488282.847656-.761719 1.257812-.269531.410156-.558594.8125-.867188 1.179688-.3125.382812-.640625.75-.992187 1.101562-.347656.347656-.71875.679688-1.097656.988282-.371094.3125-.773438.601562-1.179688.871093-.410156.269531-.832031.53125-1.261719.761719-.429687.226562-.878906.4375-1.332031.617188-.449219.191406-.917969.359374-1.378906.5-.46875.140624-.949219.261718-1.429688.359374-.480468.101563-.96875.171876-1.449218.222657-.492188.046875-.992188.070312-1.480469.070312zm0 0"/><path d="m160.882812 63.957031c-.480468 0-.980468-.023437-1.46875-.070312-.492187-.050781-.980468-.121094-1.460937-.222657-.46875-.097656-.949219-.21875-1.421875-.359374-.46875-.140626-.929688-.308594-1.378906-.5-.449219-.179688-.898438-.390626-1.328125-.617188-.429688-.230469-.859375-.492188-1.261719-.761719-.410156-.269531-.808594-.558593-1.1875-.871093-.382812-.308594-.75-.640626-1.09375-.988282-.347656-.351562-.679688-.71875-.988281-1.101562-.308594-.367188-.609375-.769532-.878907-1.179688-.269531-.410156-.519531-.828125-.75-1.257812-.230468-.429688-.441406-.882813-.628906-1.332032-.183594-.449218-.351562-.917968-.492187-1.378906-.148438-.46875-.269531-.949218-.359375-1.429687-.101563-.480469-.167969-.96875-.21875-1.449219-.050782-.492188-.082032-.992188-.082032-1.480469 0-.492187.03125-.980469.082032-1.472656.050781-.488281.117187-.976563.21875-1.457031.089844-.480469.210937-.949219.359375-1.421875.140625-.46875.3125-.929688.492187-1.378907.1875-.449218.398438-.898437.628906-1.332031.230469-.429687.480469-.859375.75-1.257812.269532-.410157.570313-.808594.878907-1.191407.3125-.378906.640625-.75.988281-1.089843.34375-.347657.710938-.679688 1.09375-.988281.378906-.3125.777344-.609376 1.1875-.878907.402344-.273437.832031-.523437 1.261719-.75.429687-.230469.878906-.441406 1.328125-.632812.449218-.179688.910156-.347657 1.378906-.488281.472656-.152344.953125-.269532 1.421875-.359376.480469-.101562.96875-.171874 1.460937-.222656.980469-.097656 1.96875-.097656 2.949219 0 .488281.050782.96875.121094 1.460938.222656.46875.089844.949219.207032 1.417969.359376.472656.140624.929687.308593 1.378906.488281.453125.191406.902344.402343 1.332031.632812.429687.226563.859375.476563 1.261719.75.40625.269531.808594.566407 1.1875.878907.378906.308593.75.640624 1.089844.988281.351562.339843.679687.710937.988281 1.089843.3125.382813.601562.78125.882812 1.191407.257813.398437.519531.828125.75 1.257812.230469.433594.4375.882813.617188 1.332031.191406.449219.363281.910157.5 1.378907.140625.472656.261719.941406.363281 1.421875.097656.480468.167969.96875.21875 1.457031.050781.492187.070312.980469.070312 1.472656 0 .488281-.023437.988281-.070312 1.480469-.050781.480469-.121094.96875-.21875 1.449219-.101562.480469-.222656.960937-.363281 1.429687-.136719.460938-.308594.929688-.5 1.378906-.179688.449219-.386719.902344-.617188 1.332032-.230469.429687-.492187.847656-.75 1.257812-.28125.410156-.570312.8125-.882812 1.179688-.308594.382812-.636719.75-.988281 1.101562-.339844.339844-.710938.679688-1.089844.988282-.378906.3125-.78125.601562-1.1875.871093-.402344.269531-.832032.53125-1.261719.761719-.429687.226562-.878906.4375-1.332031.617188-.449219.191406-.90625.359374-1.378906.5-.46875.140624-.949219.261718-1.417969.359374-.492188.101563-.972657.171876-1.460938.222657-.492187.046875-.992187.070312-1.480469.070312zm0 0"/></g><path d="m512 19.199219v49.078125h-205.082031l-32.007813 26.457031h-18.898437v-94.234375h237.289062c10.308594 0 18.699219 8.390625 18.699219 18.699219zm0 0" fill="#c2c0e2"/><path d="m449.992188 193.632812v146.132813c0 9.410156-7.660157 17.070313-17.078126 17.070313h-353.808593c-9.417969 0-17.078125-7.660157-17.078125-17.070313v-146.132813c0-9.410156 7.660156-17.070312 17.078125-17.070312h353.808593c9.417969 0 17.078126 7.660156 17.078126 17.070312zm0 0" fill="#fff"/><path d="m449.992188 193.632812v146.132813c0 9.410156-7.660157 17.070313-17.078126 17.070313h-176.902343v-180.273438h176.902343c9.417969 0 17.078126 7.660156 17.078126 17.070312zm0 0" fill="#ffe8cc"/><path d="m109.609375 308v-82.511719c0-1.988281.996094-3.5 2.984375-4.539062 1.988281-1.039063 4.367188-1.558594 7.136719-1.558594 2.765625 0 5.144531.519531 7.132812 1.558594 1.992188 1.039062 2.984375 2.550781 2.984375 4.539062v31.785157h25.816406v-31.785157c0-1.988281.992188-3.5 2.984376-4.539062 1.988281-1.039063 4.367187-1.558594 7.136718-1.558594 2.765625 0 5.144532.519531 7.132813 1.558594 1.988281 1.039062 2.984375 2.550781 2.984375 4.539062v82.511719c0 1.988281-.996094 3.523438-2.984375 4.605469s-4.367188 1.621093-7.132813 1.621093c-2.769531 0-5.148437-.539062-7.136718-1.621093-1.992188-1.082031-2.984376-2.617188-2.984376-4.605469v-35.160156h-25.816406v35.160156c0 1.988281-.992187 3.523438-2.984375 4.605469-1.988281 1.082031-4.367187 1.621093-7.132812 1.621093-2.769531 0-5.148438-.539062-7.136719-1.621093s-2.984375-2.613281-2.984375-4.605469zm0 0" fill="#ff6426"/><path d="m183.945312 228.089844c0-2.355469.519532-4.390625 1.558594-6.113282 1.035156-1.722656 2.546875-2.585937 4.539063-2.585937h56.046875c1.988281 0 3.5.863281 4.539062 2.585937 1.039063 1.722657 1.558594 3.761719 1.558594 6.113282 0 2.519531-.542969 4.640625-1.625 6.363281s-2.570312 2.582031-4.472656 2.582031h-17.90625v70.921875c0 2-.992188 3.546875-2.980469 4.636719-1.992187 1.089844-4.371094 1.632812-7.136719 1.632812-2.769531 0-5.148437-.542968-7.136718-1.632812-1.988282-1.089844-2.984376-2.636719-2.984376-4.636719v-70.921875h-17.902343c-1.902344 0-3.394531-.859375-4.476563-2.582031-1.082031-1.722656-1.621094-3.84375-1.621094-6.363281zm0 0" fill="#ff6426"/><path d="m260.226562 308v-78.488281c0-3.457031.972657-6.011719 2.921876-7.65625 1.945312-1.640625 4.34375-2.464844 7.199218-2.464844 3.890625 0 6.851563.585937 8.886719 1.753906 2.03125 1.167969 4.300781 3.957031 6.808594 8.367188l13.363281 23.351562 13.363281-23.351562c2.507813-4.410157 4.777344-7.199219 6.8125-8.367188 2.03125-1.167969 4.992188-1.753906 8.886719-1.753906 2.851562 0 5.253906.824219 7.199219 2.464844 1.945312 1.644531 2.917969 4.199219 2.917969 7.65625v78.488281c0 1.988281-.992188 3.523438-2.980469 4.605469-1.992188 1.082031-4.371094 1.621093-7.136719 1.621093-2.769531 0-5.148438-.539062-7.136719-1.621093-1.992187-1.082031-2.984375-2.617188-2.984375-4.605469v-48.648438l-12.453125 21.273438c-1.472656 2.511719-3.71875 3.761719-6.746093 3.761719-2.941407 0-5.058594-1.25-6.355469-3.761719l-12.324219-22.574219v49.949219c0 1.988281-.996094 3.523438-2.984375 4.605469s-4.367187 1.621093-7.136719 1.621093c-2.769531 0-5.144531-.539062-7.132812-1.621093-1.992188-1.082031-2.988282-2.613281-2.988282-4.605469zm0 0" fill="#d03b00"/><path d="m352.59375 308v-82.511719c0-1.988281.996094-3.5 2.984375-4.539062 1.988281-1.039063 4.367187-1.558594 7.136719-1.558594 2.765625 0 5.144531.519531 7.132812 1.558594 1.992188 1.039062 2.984375 2.550781 2.984375 4.539062v71.09375h29.582031c1.8125 0 3.242188.867188 4.277344 2.59375 1.039063 1.734375 1.558594 3.808594 1.558594 6.230469s-.519531 4.496094-1.558594 6.226562c-1.035156 1.730469-2.464844 2.59375-4.277344 2.59375h-40.996093c-2.425781 0-4.5-.539062-6.230469-1.621093s-2.59375-2.613281-2.59375-4.605469zm0 0" fill="#d03b00"/></svg>