<svg height="512pt" viewBox="0 -36 512 511" width="512pt" xmlns="http://www.w3.org/2000/svg"><path d="m493.304688.5h-474.609376c-10.308593 0-18.695312 8.386719-18.695312 18.695312v401.726563c0 10.308594 8.386719 18.695313 18.695312 18.695313h474.609376c10.308593 0 18.695312-8.386719 18.695312-18.695313v-401.726563c0-10.308593-8.386719-18.695312-18.695312-18.695312zm-11.304688 30v22.402344l-175.375.425781c-4.683594.011719-9.152344 1.777344-12.585938 4.976563l-24.667968 23.027343h-239.371094v-50.832031zm-452 379.117188v-298.289063h243.902344c4.703125 0 9.1875-1.769531 12.625-4.976563l24.683594-23.035156 170.792968-.417968v326.71875zm0 0"/><path d="m97.1875 59.207031c.089844.476563.210938.957031.359375 1.429688.140625.460937.3125.929687.492187 1.378906.1875.449219.398438.898437.628907 1.332031.230469.429688.480469.847656.75 1.257813.269531.410156.570312.8125.878906 1.179687.3125.382813.640625.75.992187 1.101563.339844.339843.707032.679687 1.089844.988281.378906.3125.777344.601562 1.1875.871094.402344.269531.832032.53125 1.261719.761718.429687.226563.878906.4375 1.328125.617188.449219.191406.910156.359375 1.382812.5.46875.140625.949219.261719 1.417969.359375.480469.101563.972657.171875 1.460938.222656.488281.046875.988281.070313 1.46875.070313.488281 0 .988281-.023438 1.480469-.070313.480468-.050781.96875-.121093 1.449218-.222656.480469-.097656.960938-.21875 1.429688-.359375.460937-.140625.933594-.308594 1.378906-.5.453125-.179688.902344-.390625 1.332031-.617188.429688-.230468.851563-.492187 1.261719-.761718.40625-.269532.808594-.558594 1.179688-.871094.390624-.308594.75-.648438 1.097656-.988281.351562-.351563.683594-.71875.992187-1.101563.308594-.367187.597657-.769531.878907-1.179687.261718-.410157.519531-.828125.75-1.257813.230468-.433594.441406-.882812.621093-1.332031.1875-.449219.359375-.917969.5-1.378906.140625-.472657.257813-.949219.359375-1.429688.101563-.480469.167969-.972656.21875-1.453125.050782-.488281.070313-.988281.070313-1.476562 0-.492188-.019531-.980469-.070313-1.472656-.050781-.488282-.117187-.976563-.21875-1.457032-.101562-.480468-.222656-.960937-.359375-1.421875-.140625-.46875-.3125-.929687-.5-1.378906-.179687-.460937-.390625-.898437-.621093-1.332031-.230469-.429688-.488282-.859375-.75-1.257813-.28125-.410156-.570313-.8125-.878907-1.191406-.3125-.378906-.640625-.75-.992187-1.089844-.347656-.351562-.707032-.679687-1.097656-1-.371094-.300781-.773438-.601562-1.179688-.867187-.410156-.273438-.832031-.523438-1.261719-.75-.429687-.230469-.878906-.441406-1.332031-.632813-.445312-.179687-.917969-.351562-1.378906-.488281-.46875-.148438-.949219-.269531-1.429688-.359375-.480468-.101563-.96875-.171875-1.449218-.222656-.980469-.097657-1.96875-.097657-2.949219 0-.488281.050781-.980469.121093-1.460938.222656-.46875.089844-.949219.210937-1.417969.359375-.472656.140625-.933593.308594-1.382812.488281-.449219.191407-.898438.398438-1.328125.632813-.429687.226562-.859375.476562-1.261719.75-.410156.269531-.808594.566406-1.1875.867187-.382812.320313-.75.648438-1.089844 1-.351562.339844-.679687.710938-.992187 1.089844-.308594.382813-.609375.78125-.878906 1.191406-.269531.398438-.519531.828125-.75 1.257813-.230469.433594-.4375.871094-.628907 1.332031-.179687.449219-.351562.910156-.492187 1.378906-.148437.460938-.269531.941407-.359375 1.421875-.101562.476563-.167969.96875-.21875 1.457032-.050781.492187-.082031.980468-.082031 1.472656 0 .488281.03125.988281.082031 1.476562.050781.484375.121094.972656.21875 1.453125zm0 0"/><path d="m54.378906 67.875c.382813.3125.78125.601562 1.191406.871094.398438.269531.832032.527344 1.261719.757812.429688.230469.878907.441406 1.328125.621094.449219.191406.910156.359375 1.378906.5.472657.140625.941407.261719 1.421876.359375.480468.101563.96875.171875 1.460937.21875.488281.050781.976563.070313 1.46875.070313.488281 0 .988281-.019532 1.480469-.070313.480468-.046875.96875-.117187 1.449218-.21875.480469-.101563.960938-.21875 1.429688-.359375.460938-.140625.929688-.308594 1.378906-.5.449219-.179688.902344-.390625 1.332032-.621094.429687-.226562.851562-.488281 1.261718-.757812.40625-.269532.808594-.5625 1.179688-.871094.378906-.308594.75-.648438 1.097656-.988281.351562-.351563.679688-.722657.992188-1.101563.308593-.371094.597656-.769531.867187-1.179687.269531-.410157.53125-.832031.761719-1.261719.230468-.429688.4375-.878906.621094-1.328125.1875-.449219.359374-.921875.5-1.382813.136718-.46875.257812-.949218.359374-1.429687.097657-.476563.167969-.96875.21875-1.449219.050782-.488281.070313-.988281.070313-1.476562 0-.492188-.019531-.980469-.070313-1.472656-.050781-.488282-.121093-.980469-.21875-1.460938-.101562-.476562-.222656-.949219-.359374-1.417969-.140626-.472656-.3125-.929687-.5-1.382812-.183594-.445313-.390626-.898438-.621094-1.328125-.230469-.429688-.492188-.859375-.761719-1.261719-.269531-.410156-.558594-.808594-.867187-1.1875-.3125-.378906-.640626-.75-.992188-1.089844-3.140625-3.140625-7.640625-4.769531-12.078125-4.320312-.488281.050781-.980469.121093-1.460937.21875-.480469.09375-.949219.210937-1.417969.363281-.472657.136719-.929688.308594-1.382813.488281-.449218.1875-.898437.398438-1.328125.628907-.429687.230468-.859375.480468-1.261719.75-.410156.269531-.808593.570312-1.1875.882812-.382812.308594-.75.636719-1.089843.988281-2.800781 2.789063-4.398438 6.660157-4.398438 10.601563 0 3.949218 1.597657 7.816406 4.398438 10.605468.335937.34375.707031.683594 1.085937.992188zm0 0"/><path d="m146.1875 59.207031c.089844.476563.207031.957031.359375 1.429688.140625.460937.308594.929687.488281 1.378906.191406.449219.398438.898437.628906 1.332031.230469.429688.480469.847656.75 1.257813.273438.410156.570313.8125.882813 1.179687.308594.382813.640625.75.988281 1.101563.339844.351562.710938.679687 1.089844.988281.382812.3125.78125.601562 1.191406.871094.398438.269531.828125.53125 1.257813.761718.433593.226563.878906.4375 1.332031.617188.449219.191406.910156.359375 1.378906.5.472656.140625.949219.261719 1.417969.359375.480469.101563.972656.171875 1.460937.222656.492188.046875.992188.070313 1.472657.070313.488281 0 .988281-.023438 1.476562-.070313.492188-.050781.972657-.121093 1.460938-.222656.472656-.097656.949219-.21875 1.421875-.359375.46875-.140625.929687-.308594 1.378906-.5.449219-.179688.898438-.390625 1.328125-.617188.433594-.230468.859375-.492187 1.261719-.761718.410156-.269532.808594-.558594 1.191406-.871094.378906-.308594.75-.640625 1.089844-.988281.347656-.351563.679687-.71875.988281-1.101563.3125-.367187.601563-.769531.878906-1.179687.261719-.410157.523438-.828125.75-1.257813.230469-.433594.441407-.882812.621094-1.332031.191406-.449219.359375-.917969.5-1.378906.140625-.472657.257813-.949219.359375-1.429688s.171875-.972656.21875-1.453125c.050781-.488281.070312-.988281.070312-1.476562 0-.492188-.019531-.980469-.070312-1.472656-.046875-.488282-.117188-.976563-.21875-1.457032-.101562-.480468-.21875-.960937-.359375-1.421875-.140625-.46875-.308594-.929687-.5-1.378906-.179687-.460937-.390625-.898437-.621094-1.332031-.226562-.429688-.488281-.859375-.75-1.257813-.277343-.410156-.566406-.8125-.878906-1.191406-.308594-.378906-.640625-.75-.988281-1.089844-.339844-.351562-.710938-.679687-1.089844-1-.382812-.300781-.78125-.601562-1.191406-.867187-.398438-.273438-.828125-.523438-1.261719-.75-.429687-.230469-.878906-.441406-1.328125-.632813-.449219-.1875-.910156-.351562-1.378906-.488281-.472656-.148438-.949219-.269531-1.421875-.359375-.488281-.101563-.96875-.179687-1.460938-.222656-.976562-.097657-1.96875-.097657-2.949219 0-.488281.042969-.976562.121093-1.460937.222656-.46875.089844-.945313.210937-1.417969.359375-.46875.140625-.929687.300781-1.378906.488281-.453125.191407-.898438.398438-1.332031.632813-.429688.226562-.859375.476562-1.257813.75-.410156.269531-.8125.566406-1.191406.867187-.378906.320313-.75.648438-1.089844 1-.351562.339844-.679687.710938-.988281 1.089844-.3125.382813-.609375.78125-.882813 1.191406-.269531.398438-.519531.828125-.75 1.257813-.226562.433594-.4375.871094-.628906 1.332031-.179687.449219-.351562.910156-.488281 1.378906-.152344.460938-.269531.941407-.359375 1.421875-.101562.476563-.171875.96875-.222656 1.457032-.050782.492187-.078125.980468-.078125 1.472656 0 .488281.027343.988281.078125 1.476562.050781.484375.121094.972656.222656 1.453125zm0 0"/><path d="m435.371094 165.917969h-353.8125c-9.414063 0-17.070313 7.660156-17.070313 17.070312v146.136719c0 9.414062 7.65625 17.070312 17.070313 17.070312h353.8125c9.414062 0 17.070312-7.65625 17.070312-17.070312v-146.136719c0-9.410156-7.65625-17.070312-17.070312-17.070312zm-12.925782 150.28125h-327.960937v-120.28125h327.960937zm0 0"/><path d="m115.050781 301.960938c1.988281 1.082031 4.367188 1.621093 7.132813 1.621093 2.769531 0 5.148437-.539062 7.136718-1.621093 1.988282-1.078126 2.984376-2.613282 2.984376-4.605469v-35.15625h25.816406v35.15625c0 1.992187.992187 3.527343 2.984375 4.605469 1.988281 1.082031 4.363281 1.621093 7.136719 1.621093 2.765624 0 5.144531-.539062 7.132812-1.621093 1.988281-1.078126 2.984375-2.613282 2.984375-4.605469v-82.507813c0-1.988281-.996094-3.503906-2.984375-4.542968-1.988281-1.035157-4.367188-1.554688-7.132812-1.554688-2.773438 0-5.148438.519531-7.136719 1.554688-1.992188 1.039062-2.984375 2.554687-2.984375 4.542968v31.785156h-25.816406v-31.785156c0-1.988281-.996094-3.503906-2.984376-4.542968-1.988281-1.035157-4.367187-1.554688-7.136718-1.554688-2.765625 0-5.144532.519531-7.132813 1.554688-1.992187 1.039062-2.984375 2.554687-2.984375 4.542968v82.507813c0 1.992187.992188 3.527343 2.984375 4.605469zm0 0"/><path d="m192.5 226.394531h17.902344v70.921875c0 2 .992187 3.546875 2.980468 4.636719 1.988282 1.089844 4.367188 1.632813 7.136719 1.632813 2.765625 0 5.144531-.542969 7.136719-1.632813 1.988281-1.089844 2.980469-2.636719 2.980469-4.636719v-70.921875h17.90625c1.898437 0 3.390625-.859375 4.476562-2.582031 1.078125-1.726562 1.621094-3.84375 1.621094-6.367188 0-2.351562-.519531-4.386718-1.558594-6.109374-1.039062-1.722657-2.550781-2.585938-4.539062-2.585938h-56.046875c-1.988282 0-3.5.863281-4.539063 2.585938-1.039062 1.722656-1.558593 3.757812-1.558593 6.109374 0 2.523438.539062 4.644532 1.621093 6.367188 1.082031 1.71875 2.574219 2.582031 4.480469 2.582031zm0 0"/><path d="m265.667969 301.960938c1.984375 1.082031 4.363281 1.621093 7.132812 1.621093s5.144531-.539062 7.136719-1.621093c1.988281-1.078126 2.984375-2.613282 2.984375-4.605469v-49.945313l12.324219 22.574219c1.296875 2.507813 3.414062 3.761719 6.355468 3.761719 3.027344 0 5.273438-1.253906 6.746094-3.761719l12.453125-21.277344v48.648438c0 1.992187.992188 3.527343 2.984375 4.605469 1.988282 1.082031 4.363282 1.621093 7.136719 1.621093 2.765625 0 5.144531-.539062 7.132813-1.621093 1.988281-1.078126 2.984374-2.613282 2.984374-4.605469v-78.484375c0-3.460938-.972656-6.011719-2.917968-7.65625-1.945313-1.640625-4.347656-2.464844-7.199219-2.464844-3.894531 0-6.859375.585938-8.890625 1.75-2.03125 1.167969-4.300781 3.957031-6.808594 8.371094l-13.363281 23.351562-13.363281-23.351562c-2.507813-4.414063-4.777344-7.203125-6.808594-8.371094-2.035156-1.164062-4.996094-1.75-8.890625-1.75-2.851563 0-5.25.824219-7.199219 2.464844-1.945312 1.644531-2.917968 4.195312-2.917968 7.65625v78.484375c0 1.992187.996093 3.527343 2.988281 4.605469zm0 0"/><path d="m357.644531 301.960938c1.726563 1.082031 3.804688 1.621093 6.226563 1.621093h40.996094c1.816406 0 3.242187-.863281 4.28125-2.59375 1.039062-1.730469 1.554687-3.804687 1.554687-6.226562s-.515625-4.496094-1.554687-6.230469c-1.039063-1.726562-2.464844-2.59375-4.28125-2.59375h-29.578126v-71.089844c0-1.988281-.996093-3.503906-2.984374-4.542968-1.992188-1.035157-4.367188-1.554688-7.136719-1.554688s-5.144531.519531-7.132813 1.554688c-1.992187 1.039062-2.984375 2.554687-2.984375 4.542968v82.507813c0 1.992187.863281 3.527343 2.59375 4.605469zm0 0"/></svg>