<?xml version="1.0" encoding="iso-8859-1"?>
<!-- Generator: Adobe Illustrator 19.0.0, SVG Export Plug-In . SVG Version: 6.00 Build 0)  -->
<svg version="1.1" id="Capa_1" xmlns="http://www.w3.org/2000/svg" xmlns:xlink="http://www.w3.org/1999/xlink" x="0px" y="0px"
	 viewBox="0 0 512 512" style="enable-background:new 0 0 512 512;" xml:space="preserve">
<path style="fill:#7A666C;" d="M60,64.451V4c0-2.209,1.791-4,4-4h384c2.209,0,4,1.791,4,4v60.451C452,64.451,60,64.451,60,64.451z"
	/>
<path style="fill:#6A545A;" d="M421.053,0v64.27H452V4.991C452,2.235,450.209,0,448,0H421.053z"/>
<path style="fill:#FF993B;" d="M60,64.451V4c0-2.209,1.791-4,4-4h111.537v64.451H60z"/>
<path style="fill:#F1EBE0;" d="M60,508V51.509h392V508c0,2.209-1.791,4-4,4H64C61.791,512,60,510.209,60,508z"/>
<path style="fill:#E8E1D7;" d="M421.053,51.509V512H448c2.209,0,4-1.791,4-4V51.509H421.053z"/>
<path style="fill:#BEC950;" d="M90.947,147.419V93.608c0-2.209,1.791-4,4-4h322.105c2.209,0,4,1.791,4,4v53.811c0,2.209-1.791,4-4,4
	H94.947C92.738,151.419,90.947,149.628,90.947,147.419z"/>
<path style="fill:#58C357;" d="M90.947,306.691V195.19c0-2.209,1.791-4,4-4H252c2.209,0,4,1.791,4,4v111.501c0,2.209-1.791,4-4,4
	H94.947C92.738,310.691,90.947,308.9,90.947,306.691z"/>
<path style="fill:#006ECB;" d="M289.011,462.157V195.099c0-2.209,1.791-4,4-4h124.042c2.209,0,4,1.791,4,4v267.058
	c0,2.209-1.791,4-4,4H293.011C290.801,466.157,289.011,464.366,289.011,462.157z"/>
<path style="fill:#0087D5;" d="M90.947,462.157V350.656c0-2.209,1.791-4,4-4H252c2.209,0,4,1.791,4,4v111.501c0,2.209-1.791,4-4,4
	H94.947C92.738,466.157,90.947,464.366,90.947,462.157z"/>
<g>
	<circle style="fill:#FFBD2A;" cx="90.14" cy="25.755" r="7.726"/>
	<circle style="fill:#FFBD2A;" cx="147.83" cy="25.755" r="7.726"/>
	<circle style="fill:#FFBD2A;" cx="118.99" cy="25.755" r="7.726"/>
</g>
<g>
	<path style="fill:#00E7FF;" d="M387.011,391.243h-61.895c-4.143,0-7.5-3.358-7.5-7.5s3.357-7.5,7.5-7.5h61.895
		c4.143,0,7.5,3.358,7.5,7.5S391.153,391.243,387.011,391.243z"/>
	<path style="fill:#00E7FF;" d="M387.011,420.087h-61.895c-4.143,0-7.5-3.358-7.5-7.5s3.357-7.5,7.5-7.5h61.895
		c4.143,0,7.5,3.358,7.5,7.5S391.153,420.087,387.011,420.087z"/>
</g>
<g>
</g>
<g>
</g>
<g>
</g>
<g>
</g>
<g>
</g>
<g>
</g>
<g>
</g>
<g>
</g>
<g>
</g>
<g>
</g>
<g>
</g>
<g>
</g>
<g>
</g>
<g>
</g>
<g>
</g>
</svg>
