<?xml version="1.0" encoding="iso-8859-1"?>
<!-- Generator: Adobe Illustrator 19.0.0, SVG Export Plug-In . SVG Version: 6.00 Build 0)  -->
<svg version="1.1" id="Capa_1" xmlns="http://www.w3.org/2000/svg" xmlns:xlink="http://www.w3.org/1999/xlink" x="0px" y="0px"
	 viewBox="0 0 512 512" style="enable-background:new 0 0 512 512;" xml:space="preserve">
<g>
	<g>
		<path d="M446,0H66c-4.143,0-7.5,3.358-7.5,7.5v88c0,4.142,3.357,7.5,7.5,7.5s7.5-3.358,7.5-7.5V65h365v383.25
			c0,4.142,3.357,7.5,7.5,7.5s7.5-3.358,7.5-7.5V7.5C453.5,3.358,450.143,0,446,0z M170.5,50h-97V15h97V50z M438.5,50h-253V15h253
			V50z"/>
	</g>
</g>
<g>
	<g>
		<path d="M446,472.5c-4.143,0-7.5,3.358-7.5,7.5v17h-365V128.5c0-4.142-3.357-7.5-7.5-7.5s-7.5,3.358-7.5,7.5v376
			c0,4.142,3.357,7.5,7.5,7.5h380c4.143,0,7.5-3.358,7.5-7.5V480C453.5,475.858,450.143,472.5,446,472.5z"/>
	</g>
</g>
<g>
	<g>
		<path d="M416,86.983h-32c-4.143,0-7.5,3.358-7.5,7.5c0,4.142,3.357,7.5,7.5,7.5h24.5v45h-305v-45H352c4.143,0,7.5-3.358,7.5-7.5
			c0-4.142-3.357-7.5-7.5-7.5H96c-4.143,0-7.5,3.358-7.5,7.5v60c0,4.142,3.357,7.5,7.5,7.5h320c4.143,0,7.5-3.358,7.5-7.5v-60
			C423.5,90.341,420.143,86.983,416,86.983z"/>
	</g>
</g>
<g>
	<g>
		<path d="M256,185.588H96c-4.143,0-7.5,3.358-7.5,7.5v116c0,4.142,3.357,7.5,7.5,7.5h160c4.143,0,7.5-3.358,7.5-7.5v-116
			C263.5,188.946,260.143,185.588,256,185.588z M248.5,301.588h-145v-101h145V301.588z"/>
	</g>
</g>
<g>
	<g>
		<path d="M416,185.5H288c-4.143,0-7.5,3.358-7.5,7.5v267c0,4.142,3.357,7.5,7.5,7.5h128c4.143,0,7.5-3.358,7.5-7.5V193
			C423.5,188.858,420.143,185.5,416,185.5z M408.5,452.5h-113v-252h113V452.5z"/>
	</g>
</g>
<g>
	<g>
		<path d="M256,336.5H96c-4.143,0-7.5,3.358-7.5,7.5v116c0,4.142,3.357,7.5,7.5,7.5h160c4.143,0,7.5-3.358,7.5-7.5V344
			C263.5,339.858,260.143,336.5,256,336.5z M248.5,452.5h-145v-101h145V452.5z"/>
	</g>
</g>
<g>
	<g>
		<circle cx="95" cy="32.5" r="7.5"/>
	</g>
</g>
<g>
	<g>
		<circle cx="151" cy="32.5" r="7.5"/>
	</g>
</g>
<g>
	<g>
		<circle cx="123" cy="32.5" r="7.5"/>
	</g>
</g>
<g>
	<g>
		<path d="M383,372.5h-60c-4.143,0-7.5,3.358-7.5,7.5c0,4.142,3.357,7.5,7.5,7.5h60c4.143,0,7.5-3.358,7.5-7.5
			C390.5,375.858,387.143,372.5,383,372.5z"/>
	</g>
</g>
<g>
	<g>
		<path d="M383,400.5h-60c-4.143,0-7.5,3.358-7.5,7.5c0,4.142,3.357,7.5,7.5,7.5h60c4.143,0,7.5-3.358,7.5-7.5
			C390.5,403.858,387.143,400.5,383,400.5z"/>
	</g>
</g>
<g>
</g>
<g>
</g>
<g>
</g>
<g>
</g>
<g>
</g>
<g>
</g>
<g>
</g>
<g>
</g>
<g>
</g>
<g>
</g>
<g>
</g>
<g>
</g>
<g>
</g>
<g>
</g>
<g>
</g>
</svg>
