<svg id="Capa_1" enable-background="new 0 0 512 512" height="512" viewBox="0 0 512 512" width="512" xmlns="http://www.w3.org/2000/svg"><g><g clip-rule="evenodd" fill-rule="evenodd"><path d="m0 231.111 135.016-14.003 206.336 14.003v216.966c0 4.422-3.6 8.023-8.022 8.023h-325.336c-4.394 0-7.994-3.601-7.994-8.023 0-72.312 0-144.625 0-216.966z" fill="#dddaec"/><path d="m316.35 231.111h25.002v216.966c0 4.422-3.6 8.023-8.022 8.023h-25.002c4.422 0 8.022-3.601 8.022-8.023v-79.484h-137.68c-18.198 0-32.996-14.797-32.996-32.996v-104.486h25.002v104.485c0 4.395 3.6 7.994 7.994 7.994h137.68z" fill="#d0cce3"/><path d="m0 231.111h341.352v-62.731h-333.358c-5.244 0-7.994 3.004-7.994 8.021z" fill="#365e7d"/><path d="m170.676 118.631 146.864-16.498 194.46 16.498v216.966c0 4.395-3.6 7.994-7.994 7.994h-325.336c-4.393 0-7.994-3.6-7.994-7.994 0-72.312 0-144.654 0-216.966z" fill="#f9f7f8"/><path d="m486.998 118.631h25.002v216.966c0 4.395-3.6 7.994-7.994 7.994h-25.002c4.394 0 7.994-3.6 7.994-7.994 0-72.312 0-144.654 0-216.966z" fill="#ebe8fa"/><path d="m346.908 303.396 35.944-37.021c3.685-3.771 8.107-5.727 13.578-5.727h49.748c4.026 0 5.415-2.467 2.211-5.527l-101.255-96.52c-3.175-3.006-5.783-1.673-5.783 2.494v140.062c.001 4.053 2.382 5.528 5.557 2.239z" fill="#cbe2ff"/><path d="m421.177 260.648h25.001c4.026 0 5.415-2.467 2.211-5.527l-101.255-96.52c-3.175-3.006-5.783-1.673-5.783 2.494v15.817l82.036 78.209c3.204 3.061 1.815 5.527-2.21 5.527z" fill="#bed8fb"/><path d="m170.676 118.631h341.324c0-18.256 0-36.482 0-54.737 0-4.394-3.6-7.993-7.994-7.993h-325.336c-4.393 0-7.994 3.6-7.994 7.993z" fill="#365e7d"/><path d="m486.998 118.631h25.002c0-18.256 0-36.482 0-54.737 0-4.394-3.6-7.993-7.994-7.993h-25.002c4.394 0 7.994 3.6 7.994 7.993z" fill="#2b4d66"/></g><path d="m465.483 94.763c-4.139 0-7.483-3.345-7.483-7.483 0-4.167 3.345-7.512 7.483-7.512h9.921c4.167 0 7.512 3.345 7.512 7.512 0 4.139-3.345 7.483-7.512 7.483z" fill="#ff7d91"/><path d="m424.182 94.763c-4.139 0-7.483-3.345-7.483-7.483 0-4.167 3.345-7.512 7.483-7.512h9.949c4.139 0 7.484 3.345 7.484 7.512 0 4.139-3.345 7.483-7.484 7.483z" fill="#61a2f9"/><path d="m382.909 94.763c-4.167 0-7.512-3.345-7.512-7.483 0-4.167 3.345-7.512 7.512-7.512h9.921c4.139 0 7.484 3.345 7.484 7.512 0 4.139-3.345 7.483-7.484 7.483z" fill="#95d6a4"/><path d="m213.905 277.911c-4.138 0-7.512-3.373-7.512-7.512s3.374-7.512 7.512-7.512h84.219c4.139 0 7.483 3.373 7.483 7.512s-3.345 7.512-7.483 7.512zm0-78.577c-4.138 0-7.512-3.373-7.512-7.512s3.374-7.483 7.512-7.483h84.219c4.139 0 7.483 3.345 7.483 7.483 0 4.139-3.345 7.512-7.483 7.512zm0 39.289c-4.138 0-7.512-3.373-7.512-7.512s3.374-7.483 7.512-7.483h84.219c4.139 0 7.483 3.345 7.483 7.483 0 4.139-3.345 7.512-7.483 7.512z" fill="#95d6a4"/><path clip-rule="evenodd" d="m145.674 168.38h25.002v62.731h-25.002z" fill="#2b4d66" fill-rule="evenodd"/></g></svg>