<svg id="Capa_1" enable-background="new 0 0 512 512" height="512" viewBox="0 0 512 512" width="512" xmlns="http://www.w3.org/2000/svg"><g><path d="m346.341 348.538v101.708c0 4.139-3.345 7.483-7.512 7.483h-331.317c-4.139 0-7.512-3.345-7.512-7.483v-92.212c0-4.139 3.373-7.512 7.512-7.512 4.138 0 7.483 3.373 7.483 7.512v84.7h316.35v-94.196h-158.174c-4.139 0-7.512-3.345-7.512-7.483v-101.708h-150.663v84.7c0 4.139-3.345 7.512-7.483 7.512-4.139 0-7.512-3.373-7.512-7.512 0-51.024 0-102.048 0-153.073 0-4.139 3.373-7.512 7.512-7.512h158.146c0-33.902 0-67.806 0-101.68 0-4.139 3.374-7.512 7.512-7.512h331.346c4.138 0 7.483 3.373 7.483 7.512v153.072c0 4.139-3.345 7.512-7.483 7.512-4.139 0-7.512-3.373-7.512-7.512v-84.7h-316.322v203.389h316.322v-84.7c0-4.139 3.374-7.512 7.512-7.512s7.483 3.373 7.483 7.512v92.212c0 4.139-3.345 7.483-7.483 7.483zm-131.217-71.065c-4.139 0-7.483-3.345-7.483-7.483 0-4.139 3.345-7.512 7.483-7.512h81.752c4.139 0 7.512 3.373 7.512 7.512s-3.374 7.483-7.512 7.483zm0-76.253c-4.139 0-7.483-3.345-7.483-7.513 0-4.138 3.345-7.482 7.483-7.482h81.752c4.139 0 7.512 3.345 7.512 7.482 0 4.168-3.374 7.513-7.512 7.513zm0 38.127c-4.139 0-7.483-3.346-7.483-7.484s3.345-7.512 7.483-7.512h81.752c4.139 0 7.512 3.374 7.512 7.512 0 4.139-3.374 7.484-7.512 7.484zm164.043-139.637c-4.139 0-7.484-3.346-7.484-7.483 0-4.139 3.345-7.513 7.484-7.513h9.638c4.167 0 7.512 3.374 7.512 7.513 0 4.138-3.345 7.483-7.512 7.483zm40.082 0c-4.139 0-7.483-3.346-7.483-7.483 0-4.139 3.345-7.513 7.483-7.513h9.666c4.138 0 7.483 3.374 7.483 7.513 0 4.138-3.345 7.483-7.483 7.483zm40.111 0c-4.167 0-7.512-3.346-7.512-7.483 0-4.139 3.345-7.513 7.512-7.513h9.638c4.139 0 7.483 3.374 7.483 7.513 0 4.138-3.345 7.483-7.483 7.483zm-278.677 15.449h316.322v-45.893h-316.322zm205.797 76.026c2.976 2.835 3.09 7.569.255 10.573-2.863 2.977-7.597 3.09-10.573.256l-29.821-28.432v115.569l32.854-33.846c1.417-1.445 3.345-2.297 5.357-2.297h45.1l-28.914-27.553c-2.977-2.862-3.09-7.596-.255-10.572 2.835-3.006 7.597-3.12 10.574-.256l42.095 40.111c1.673 1.359 2.722 3.457 2.722 5.782 0 4.138-3.345 7.483-7.512 7.483h-60.662l-43.116 44.42c-1.36 1.616-3.43 2.665-5.754 2.665-4.138 0-7.483-3.346-7.483-7.484v-151.484c0-6.491 7.852-10.007 12.643-5.442zm-220.821 33.166v-45.894h-150.663v45.894z"/></g></svg>